<?xml version="1.0" encoding="utf-8"?>
<!-- Generator: Adobe Illustrator 24.0.0, SVG Export Plug-In . SVG Version: 6.00 Build 0)  -->
<svg version="1.1" xmlns="http://www.w3.org/2000/svg" xmlns:xlink="http://www.w3.org/1999/xlink" x="0px" y="0px"
	 viewBox="0 0 512 512" style="enable-background:new 0 0 512 512;" xml:space="preserve">
<style type="text/css">
	.st0{fill:#0A4436;}
	.st1{clip-path:url(#SVGID_4_);}
	.st2{clip-path:url(#SVGID_8_);}
	.st3{fill:#FFFFFF;}
	.st4{fill:#30D686;}
	.st5{fill:#4D5F61;}
	.st6{fill:#ED9A56;}
	.st7{fill:#2C84C6;}
	.st8{fill:#EFD354;}
	.st9{fill:#024433;}
	.st10{fill:#F92C0B;}
	.st11{clip-path:url(#SVGID_10_);fill:#0A4436;}
	.st12{fill:#3DD367;}
	.st13{fill:#FF6D00;}
	.st14{fill:#0074FF;}
	.st15{clip-path:url(#SVGID_12_);}
	.st16{fill:#55CD6C;}
	.st17{fill:#2BCC65;}
	.st18{fill:url(#SVGID_15_);}
	.st19{fill:url(#SVGID_18_);}
</style>
<g id="Capa_1">
	<g>
		<g>
			<path class="st0" d="M506.04,456.72c-2.54,3.55-6.11,4.08-10.22,4.07c-86.56-0.08-173.11-0.06-259.67-0.06
				c-73.05,0-146.11-0.06-219.16,0.08c-8.63,0.02-11.28-1.89-10.92-11.14c0.27-6.99,0.01-13.99,0.07-20.99
				c0.05-6.32,2.1-8.36,8.52-8.61c1.76-0.07,3.53-0.01,5.62-0.01c0-59.59,0-118.71,0-178.11c-1.6-0.09-3.02-0.17-4.44-0.25
				c-1.3-0.08-2.62-0.02-3.88-0.27c-3.53-0.68-5.71-3.12-5.75-6.26c-0.04-3.13,2.12-5.68,5.63-6.32c1.74-0.32,3.56-0.32,5.34-0.32
				c39.37-0.02,78.75-0.01,118.12-0.01c1.95,0,3.89,0,6.43,0c0.05-2.1,0.13-3.99,0.13-5.87c0.01-53.04,0.08-106.08-0.06-159.12
				c-0.02-9.19,2.02-11.25,11.36-11.23c68.17,0.15,136.34,0.08,204.51,0.08c9.69,0,10.87,1.19,10.87,11c0,52.88,0,105.76,0,158.63
				c0,1.93,0,3.85,0,6.27c2.24,0.09,4.13,0.23,6.02,0.23c39.7,0.01,79.4,0.01,119.1,0.01c1.14,0,2.28,0.05,3.42-0.01
				c3.89-0.19,6.98,1.15,8.98,4.61c0,1.3,0,2.6,0,3.91c-3.01,5.86-8.77,4.4-13.64,4.76c-0.26,0.82-0.53,1.28-0.53,1.73
				c-0.04,57.36-0.06,114.72-0.07,172.08c0,1.12,0.17,2.25,0.27,3.37c0.01,0.15,0.12,0.31,0.22,0.43c0.1,0.12,0.26,0.19,0.75,0.53
				c4.42,0.45,9.98-1.01,12.99,4.57C506.04,435.24,506.04,445.98,506.04,456.72z M155.11,65.49c0,54.43,0,108.52,0,162.99
				c5.1-0.05,9.87,0.34,14.89-0.31c0-2.46,0-4.39,0-6.33c0-43.45,0-86.89,0.01-130.34c0-1.79-0.07-3.59,0.15-5.36
				c0.38-3.08,2.28-4.97,5.37-5.39c1.6-0.22,3.25-0.18,4.87-0.18c19.04-0.01,38.08,0.15,57.11-0.07
				c10.44-0.12,12.11,1.27,12.08,11.85c-0.14,43.28-0.06,86.57-0.06,129.85c0,1.91,0,3.83,0,6.02c4,0,7.46,0,11.39,0
				c0-2.2,0-4.12,0-6.04c0-43.61,0-87.22,0-130.83c0-1.63-0.09-3.27,0.11-4.88c0.41-3.36,2.33-5.31,5.61-5.76
				c1.28-0.18,2.6-0.15,3.9-0.15c20.18-0.01,40.35-0.01,60.53,0c1.14,0,2.29-0.02,3.41,0.11c3.41,0.39,5.25,2.04,5.83,5.49
				c0.32,1.91,0.32,3.88,0.32,5.83c0.02,43.45,0.01,86.89,0.01,130.34c0,1.9,0,3.8,0,5.92c5.26,0,9.89,0,14.75,0
				c0-54.36,0-108.45,0-162.77C288.62,65.49,222.12,65.49,155.11,65.49z M183.16,93.67c0,45.11,0,89.75,0,134.43
				c17.9,0,35.51,0,53.14,0c0-44.99,0-89.62,0-134.43C218.51,93.67,201,93.67,183.16,93.67z M327.15,228.22
				c0.91-9.94,0.53-130.88-0.38-134.46c-17.5,0-35.01,0-52.7,0c0,44.92,0,89.57,0,134.46C291.86,228.22,309.37,228.22,327.15,228.22
				z M492.87,433.45c-157.95,0-315.64,0-473.48,0c0,4.88,0,9.49,0,14.05c8.63,0.92,469.91,0.54,473.48-0.38
				C492.87,442.66,492.87,438.17,492.87,433.45z M98.54,419.76c0-59.39,0-118.48,0-177.99c-10.07-0.08-19.86-0.13-29.61,0.02
				c0,59.76,0,118.86,0,177.97C78.94,419.76,88.63,419.76,98.54,419.76z M141.68,241.95c-10.11,0-19.79,0-29.74,0
				c0,59.33,0,118.41,0,177.91c10.01,0.29,19.79,0.36,29.74-0.03C141.68,360.37,141.68,301.4,141.68,241.95z M155.29,241.88
				c-1.05,7.87-0.7,174.39,0.42,178.15c9.54,0.01,19.19,0.14,28.85-0.08c0-59.74,0-118.84,0-178.07
				C174.65,241.88,165.09,241.88,155.29,241.88z M270.98,419.82c0-59.54,0-118.63,0-177.8c-10,0-19.66,0-29.44,0
				c0,59.4,0,118.48,0,177.8C251.39,419.82,260.92,419.82,270.98,419.82z M284.63,241.98c-1.06,12.14-0.57,174.29,0.49,177.81
				c9.05,0.81,25.58,0.47,29.09-0.62c0-58.94,0-117.93,0-177.18C304.28,241.98,294.6,241.98,284.63,241.98z M400.36,419.87
				c0-59.53,0-118.61,0-177.66c-6.11-0.91-26.18-0.69-29.61,0.28c-0.94,9.5-0.53,173.71,0.5,177.38
				C380.76,419.87,390.32,419.87,400.36,419.87z M413.87,241.93c0,59.32,0,118.43,0,177.83c9.91,0,19.58,0,29.14,0
				c0.26-0.48,0.54-0.76,0.54-1.04c0.06-57.4,0.1-114.81,0.13-172.21c0-1.3-0.1-2.59-0.18-3.89c-0.01-0.13-0.19-0.25-0.3-0.37
				c-0.11-0.12-0.23-0.23-0.32-0.33C433.29,241.93,423.73,241.93,413.87,241.93z M198.34,419.72c9.94,0,19.58,0,29.16,0
				c0.94-6.06,0.72-174.08-0.18-177.64c-6.85-0.8-25.6-0.54-28.98,0.4C198.34,301.47,198.34,360.46,198.34,419.72z M327.65,241.93
				c-1.06,14.84-0.55,174.18,0.5,177.79c9.04,0,18.07,0,27.19,0c0-59.44,0-118.54,0-177.79
				C345.99,241.93,336.95,241.93,327.65,241.93z M55.39,420.06c0-59.8,0-118.87,0-178.04c-7.39,0-14.45,0-21.6,0
				c0,59.41,0,118.5,0,177.82c1.71,0.08,3.14,0.2,4.58,0.21C43.87,420.08,49.38,420.06,55.39,420.06z M457.12,241.98
				c0,59.34,0,118.4,0,177.4c5.01,1,17.61,0.91,21.34-0.11c0-59.07,0-118.15,0-177.29C471.22,241.98,464.3,241.98,457.12,241.98z"/>
		</g>
	</g>
</g>
<g id="guias">
</g>
</svg>
