<?xml version="1.0" encoding="utf-8"?>
<!-- Generator: Adobe Illustrator 24.0.0, SVG Export Plug-In . SVG Version: 6.00 Build 0)  -->
<svg version="1.1" xmlns="http://www.w3.org/2000/svg" xmlns:xlink="http://www.w3.org/1999/xlink" x="0px" y="0px"
	 viewBox="0 0 512 512" style="enable-background:new 0 0 512 512;" xml:space="preserve">
<style type="text/css">
	.st0{fill:#0A4436;}
	.st1{clip-path:url(#SVGID_4_);}
	.st2{clip-path:url(#SVGID_8_);}
	.st3{fill:#FFFFFF;}
	.st4{fill:#30D686;}
	.st5{fill:#4D5F61;}
	.st6{fill:#ED9A56;}
	.st7{fill:#2C84C6;}
	.st8{fill:#EFD354;}
	.st9{fill:#024433;}
	.st10{fill:#F92C0B;}
	.st11{clip-path:url(#SVGID_10_);fill:#0A4436;}
	.st12{fill:#3DD367;}
	.st13{fill:#FF6D00;}
	.st14{fill:#0074FF;}
	.st15{clip-path:url(#SVGID_12_);}
	.st16{fill:#55CD6C;}
	.st17{fill:#2BCC65;}
	.st18{fill:url(#SVGID_15_);}
	.st19{fill:url(#SVGID_18_);}
</style>
<g id="Capa_1">
	<g>
		<g>
			<path class="st0" d="M5.99,482.69c13.17,0,26.34,0,39.72,0c2.66-10.32,7.93-18.62,16.66-24.58c8.77-5.99,18.62-7.26,29.24-6.6
				c0-23.64,0-46.98,0-70.47c-2.98-1.52-6.09-2.92-9.02-4.63c-34.36-19.95-52.2-49.8-53.08-89.53c-0.37-16.44-0.06-32.89-0.06-49.34
				c0-1.44,0-2.88,0-4.86c5.22,0,10.17,0,15.41,0c0.09-1.93,0.21-3.34,0.22-4.76c0.02-8.79-0.09-17.59,0.04-26.38
				c0.13-9.13,6.65-15.78,15.73-15.84c20.68-0.12,41.36-0.11,62.04-0.01c9.17,0.04,15.72,6.56,15.96,15.63
				c0.13,5.01,0.02,10.03,0.02,15.32c-5.18,0-10,0-15.36,0c0-4.78,0-9.73,0-15.01c-10.67,0-20.82,0-31.25,0c0,10.08,0,20.11,0,30.67
				c46.5,0,93.12,0,140.03,0c0.16,1.74,0.36,2.97,0.36,4.21c0.02,17.1,0.48,34.21-0.08,51.29c-1.38,41.78-21.07,72.16-58.2,91.28
				c-1.29,0.67-2.6,1.3-4.03,2.01c0,23.31,0,46.53,0,70.32c2.05,0,3.95-0.01,5.85,0c19.51,0.06,33.56,10.33,39.45,28.8
				c0.2,0.62,0.4,1.24,0.69,2.16c34.52,0,69.13,0,104.27,0c3.99-14.14,8.03-28.47,12.13-42.98c-36.48-22.07-54.23-54.28-53.23-97.02
				c-0.78-0.18-1.51-0.36-2.23-0.53c-8.75-2.07-13.25-7.69-13.33-16.72c-0.03-3.74-0.01-7.49-0.01-11.24
				c0.01-11.61,3.95-16.57,15.41-19.16c0-25.63,0-51.32,0-77.37c-1.2-0.32-2.55-0.65-3.89-1.05c-6.84-2.04-11.28-7.61-11.48-14.7
				c-0.15-5.37-0.16-10.75,0-16.12c0.25-8.79,6.8-15.18,15.66-15.44c2.44-0.07,4.88-0.02,7.33-0.02c63.99,0,127.98,0,191.98,0
				c1.47,0,2.93-0.05,4.4,0.03c8.29,0.43,14.7,6.76,15.03,15.08c0.19,4.88,0.08,9.77,0.05,14.65c-0.06,9.36-4.49,14.91-13.54,17.03
				c-0.59,0.14-1.2,0.21-1.91,0.34c0,25.95,0,51.64,0,77.6c1.1,0.24,2.17,0.43,3.21,0.72c7.59,2.06,12.08,7.75,12.23,15.64
				c0.09,4.72,0.06,9.44,0.01,14.17c-0.09,8.76-4.57,14.42-13,16.51c-0.75,0.19-1.53,0.27-2.53,0.45
				c1.02,42.54-16.54,74.86-53.23,97.17c4.02,14.29,8.05,28.64,12.18,43.34c21.42,0,42.68,0,64.17,0c0,5.24,0,10.06,0,15.58
				c-166.68,0-333.34,0-500,0C5.99,493.11,5.99,487.9,5.99,482.69z M45.09,279.71c-1.17,34.11,11.02,61.61,39.91,79.82
				c30.46,19.2,62.2,19.1,92.51-0.25c28.58-18.24,40.68-45.67,39.47-79.57C159.66,279.71,102.75,279.71,45.09,279.71z
				 M295.12,342.17c-0.88,36.84,12.99,65.52,45.27,82.98c31.46,17.02,62.99,14.54,91.88-6.52c25.57-18.64,36.16-44.9,34.77-76.46
				C409.59,342.17,352.68,342.17,295.12,342.17z M466.93,217.27c-57.44,0-114.45,0-171.36,0c0,5.28,0,10.21,0,15.48
				c10.41,0,20.44,0,30.55,0c0,5.29,0,10.22,0,15.68c-10.47,0-20.62,0-30.69,0c0,15.76,0,31,0,46.4c57.27,0,114.28,0,171.5,0
				C466.93,268.91,466.93,243.26,466.93,217.27z M482.56,186.02c-67.86,0-135.31,0-202.78,0c0,5.17,0,9.99,0,15.03
				c67.67,0,135.12,0,202.78,0C482.56,195.97,482.56,191.15,482.56,186.02z M482.54,311.07c-67.83,0-135.27,0-202.6,0
				c0,5.28,0,10.22,0,15.05c67.72,0,135.05,0,202.6,0C482.54,321.05,482.54,316.23,482.54,311.07z M107.83,451.07
				c15.71,0,31.07,0,46.42,0c0-21.79,0-43.24,0-64.97c-15.55,3.68-30.87,3.67-46.42,0C107.83,407.83,107.83,429.28,107.83,451.07z
				 M216.81,248.55c-57.44,0-114.47,0-171.51,0c0,5.17,0,9.99,0,15.03c57.25,0,114.28,0,171.51,0
				C216.81,258.5,216.81,253.68,216.81,248.55z M347.26,445.5c-3.5,12.42-6.91,24.54-10.38,36.9c29.75,0,58.94,0,88.59,0
				c-3.53-12.49-6.95-24.58-10.43-36.87C392.21,453.34,369.88,453.33,347.26,445.5z M62.8,482.42c45.52,0,90.96,0,136.71,0
				c-0.29-0.92-0.39-1.56-0.67-2.1c-4.56-8.75-11.81-13.21-21.64-13.24c-20.35-0.06-40.7-0.02-61.05-0.02
				c-10.75,0-21.49-0.1-32.24,0.03C74.01,467.21,65.54,473.4,62.8,482.42z M61.04,201.52c0,10.52,0,20.66,0,30.66
				c5.28,0,10.22,0,15.04,0c0-10.41,0-20.43,0-30.66C71.01,201.52,66.2,201.52,61.04,201.52z"/>
			<path class="st0" d="M130.79,170.04c-30.77,0-61.53-0.03-92.3,0.02c-6.84,0.01-12.79-2.03-17.69-6.86
				c-4.49-4.43-6.96-9.85-6.97-16.15c-0.06-36.79-0.13-73.58,0.03-110.36c0.05-12.57,10.16-22.48,22.68-22.95
				c0.98-0.04,1.95-0.02,2.93-0.02c61.04,0,122.08,0.02,183.13-0.04c5,0,9.8,0.64,14.06,3.27c7.29,4.5,11.52,11.11,11.55,19.74
				c0.12,36.79,0.16,73.58-0.01,110.36c-0.06,13.15-10.56,22.93-24.14,22.96C192.97,170.09,161.88,170.04,130.79,170.04z
				 M131.54,29.35c-30.77,0-61.55-0.01-92.32,0.01c-6.83,0.01-9.75,2.74-9.76,9.26c-0.04,35.5-0.04,70.99,0,106.49
				c0.01,6.39,2.88,9.16,9.26,9.29c0.49,0.01,0.98,0,1.47,0c60.57,0,121.14,0,181.71,0c8.31,0,10.76-2.44,10.76-10.74
				c0.01-34.52,0.01-69.04,0-103.56c0-8.31-2.44-10.75-10.75-10.75C191.78,29.34,161.66,29.35,131.54,29.35z"/>
			<path class="st0" d="M143.54,133.55c-3.22,3.17-6.75,6.64-10.02,9.85c-31.02-31.02-62.06-62.05-93.24-93.24
				c3.24-3.2,6.77-6.68,10-9.87C81.38,71.39,112.41,102.42,143.54,133.55z"/>
			<path class="st0" d="M221.68,133.8c-3.12,3.15-6.54,6.59-9.61,9.68c-31.14-31.14-62.18-62.18-93.01-93
				c3.07-2.92,6.66-6.33,9.89-9.4C159.29,71.42,190.33,102.45,221.68,133.8z"/>
		</g>
	</g>
</g>
<g id="guias">
</g>
</svg>
