<?xml version="1.0" encoding="utf-8"?>
<!-- Generator: Adobe Illustrator 24.0.0, SVG Export Plug-In . SVG Version: 6.00 Build 0)  -->
<svg version="1.1" xmlns="http://www.w3.org/2000/svg" xmlns:xlink="http://www.w3.org/1999/xlink" x="0px" y="0px"
	 viewBox="0 0 512 512" style="enable-background:new 0 0 512 512;" xml:space="preserve">
<style type="text/css">
	.st0{fill:#0A4436;}
	.st1{clip-path:url(#SVGID_4_);}
	.st2{clip-path:url(#SVGID_8_);}
	.st3{fill:#FFFFFF;}
	.st4{fill:#30D686;}
	.st5{fill:#4D5F61;}
	.st6{fill:#ED9A56;}
	.st7{fill:#2C84C6;}
	.st8{fill:#EFD354;}
	.st9{fill:#024433;}
	.st10{fill:#F92C0B;}
	.st11{clip-path:url(#SVGID_10_);fill:#0A4436;}
	.st12{fill:#3DD367;}
	.st13{fill:#FF6D00;}
	.st14{fill:#0074FF;}
	.st15{clip-path:url(#SVGID_12_);}
	.st16{fill:#55CD6C;}
	.st17{fill:#2BCC65;}
	.st18{fill:url(#SVGID_15_);}
	.st19{fill:url(#SVGID_18_);}
</style>
<g id="Capa_1">
	<g>
		<path class="st0" d="M50.8,506.26c-5.18-2.41-6.97-6.43-6.95-12.14c0.16-45.41,0.05-90.81,0.11-136.22
			c0.02-14.89,9.16-26.55,23.24-29.77c2.66-0.61,5.48-0.61,8.23-0.72c2.9-0.12,5.81-0.03,9.41-0.03c0-2.28,0-4.16,0-6.05
			c0-37.11,0.06-74.21-0.04-111.32c-0.02-8.55,2.37-16.02,8.33-22.21c5.04-5.23,11.16-8.58,18.46-8.88
			c9.1-0.37,18.22-0.45,27.33-0.24c6.53,0.15,9.92,4.08,9.71,10.32c-0.2,5.87-3.78,9.37-10.14,9.49c-7.65,0.15-15.3-0.03-22.95,0.07
			c-7.03,0.09-10.91,3.87-10.93,10.91c-0.07,26.69-0.02,53.38,0,80.07c0,0.32,0.11,0.64,0.29,1.66
			c12.3-10.27,26.27-15.51,42.31-15.59c0.12-0.97,0.34-1.74,0.28-2.48c-1.47-20.04,14.04-38.14,33.07-42.79
			c10.84-2.65,22.09-2.7,32.9-0.01c19.55,4.85,34.82,23.27,32.91,43.31c-0.04,0.46,0.12,0.93,0.24,1.72c3.99,0,7.95,0,12.23,0
			c0.13-2.95,0.01-5.86,0.43-8.68c2.7-18.07,13.47-29.7,30.23-35.5c11.58-4.01,23.95-3.7,35.67-0.79
			c19.89,4.95,34.24,23.08,33,42.86c-0.04,0.62,0.11,1.26,0.13,1.44c8.03,1.5,15.92,2.52,23.55,4.53
			c7.75,2.04,14.55,6.31,21.18,12.13c0.15-1.81,0.33-2.98,0.33-4.16c0.02-25.55,0.03-51.1,0-76.66
			c-0.01-8.59-3.47-11.98-12.27-11.98c-55.82-0.02-111.65-0.01-167.47-0.01c-1.79,0-3.6,0.09-5.36-0.13
			c-5.45-0.7-8.56-4.49-8.46-10.1c0.09-5.42,3.09-8.83,8.49-9.51c1.77-0.22,3.57-0.21,5.36-0.21c55.17-0.01,110.35-0.03,165.52,0.03
			c3.88,0,7.88,0.14,11.62,1.04c12.68,3.05,21.51,13.96,22.29,27.01c0.13,2.11,0.12,4.23,0.12,6.34c0.01,35.97,0,71.94,0,107.9
			c0,1.92,0,3.85,0,6.56c4.44,0,8.44-0.09,12.44,0.02c7.86,0.21,14.53,3.3,19.97,8.89c5.58,5.73,8.41,12.65,8.4,20.69
			c-0.01,14.32,0.01,28.64,0.01,42.97c0,30.27,0,60.54,0,90.82c0,1.14-0.1,2.29,0.02,3.42c0.58,5.73-1.7,9.75-7.02,12.01
			c-1.95,0-3.91,0-5.86,0c-5.49-2.46-7.28-6.76-6.96-12.6c0.35-6.32,0.08-12.68,0.08-19.02c0-1.72,0-3.45,0-5.09
			c-127.2,0-253.77,0-380.61,0c0,8.5-0.23,16.63,0.08,24.73c0.22,5.74-1.79,9.73-7.1,11.99C54.7,506.26,52.75,506.26,50.8,506.26z
			 M63.92,388.22c2.29,0,4.35,0,6.42,0c95.18,0,190.37,0,285.55,0.02c2.42,0,4.92,0.05,7.24,0.63c4.22,1.04,6.88,5.07,6.77,9.58
			c-0.11,4.82-3.09,8.61-7.65,9.37c-2.23,0.37-4.53,0.36-6.81,0.36c-95.02,0.02-190.04,0.01-285.07,0.01c-2.06,0-4.12,0-6.33,0
			c0,14.03,0,27.41,0,40.84c126.89,0,253.38,0,380.23,0c0-2.11,0-3.88,0-5.65c0-27.17-0.27-54.35,0.13-81.52
			c0.17-11.52-4.74-14.88-14.7-14.86c-117.15,0.17-234.3,0.11-351.45,0.11c-0.98,0-1.95-0.01-2.93,0
			c-7.79,0.14-11.57,3.91-11.65,11.83c-0.08,8.62-0.02,17.25-0.01,25.87C63.69,385.77,63.82,386.71,63.92,388.22z M106.06,326.45
			c98.92,0,197.26,0,295.79,0c-1.04-5.57-3.47-10.15-6.64-14.3c-8.83-11.56-20.69-16.77-35.13-16.76
			c-70.61,0.04-141.23,0.02-211.84,0.02c-1.3,0-2.61-0.05-3.9,0.05c-17.08,1.32-29.27,9.75-36.46,25.3
			C107.09,322.45,106.72,324.34,106.06,326.45z M196.82,275.68c7.96,0,15.93,0.04,23.89-0.02c5.05-0.04,6.36-1.62,5.71-6.59
			c-1.26-9.71-8.64-18.3-18.36-19.59c-7.15-0.95-14.63-0.98-21.79-0.07c-10.11,1.29-17.37,9.69-18.62,19.8
			c-0.62,5.05,0.54,6.42,5.76,6.45C181.22,275.72,189.02,275.68,196.82,275.68z M308.63,275.68c8.12,0,16.24,0.07,24.36-0.03
			c4.16-0.05,5.15-1.24,5.04-5.33c-0.26-9.7-8-19.39-18.08-20.76c-7.45-1.02-15.26-0.98-22.72,0c-9.48,1.25-16.97,10.13-17.94,19.35
			c-0.57,5.48,0.49,6.74,5.96,6.77C293.04,275.71,300.83,275.68,308.63,275.68z"/>
		<path class="st0" d="M330.73,6.28c1.46,0,2.94-0.08,4.39,0.07c4.75,0.48,8.11,3.54,8.91,8.27c0.32,1.91,0.33,3.88,0.33,5.83
			c0.02,32.69,0.02,65.38,0.01,98.07c0,11.5-3,14.53-14.35,14.53c-50.42,0-100.83,0.01-151.25-0.01c-1.94,0-3.93,0-5.82-0.39
			c-4.71-0.97-7.57-4.41-7.92-9.23c-0.08-1.13-0.05-2.28-0.05-3.41c0-33.67,0-67.33,0-101c0-1.14-0.04-2.28,0.06-3.41
			c0.42-5.06,4-8.72,9.07-9.24c1.45-0.15,2.92-0.07,4.39-0.07C203.87,6.28,305.36,6.28,330.73,6.28z M324.13,26.35
			c-46.62,0-92.76,0-139.03,0c0,28.98,0,57.65,0,86.19c5.59,1.58,8.89,0.06,11.77-4.97c10.09-17.63,21.05-34.78,31.04-52.46
			c4.06-7.18,14.56-8.69,19.06,0.18c2.42,4.78,5.38,9.28,8.11,13.9c3.22,5.44,6.46,10.87,9.98,16.78c1.14-1.79,2.02-3.1,2.84-4.45
			c2.7-4.45,5.22-9.01,8.09-13.34c4.07-6.13,12.1-6.27,16.49-0.44c0.88,1.16,1.58,2.46,2.32,3.72c7.52,12.74,15.11,25.44,22.5,38.25
			c1.63,2.82,3.42,4.13,6.82,2.77C324.13,83.93,324.13,55.34,324.13,26.35z M216.63,113c10.86,0,20.89,0.14,30.92-0.08
			c3.17-0.07,6.24-6.69,4.63-9.51c-3.62-6.33-7.37-12.6-11.08-18.88c-1.11-1.87-2.28-3.71-3.77-6.15
			C230.29,90.15,223.67,101.22,216.63,113z M296.13,112.78c-4.01-6.77-7.72-13.03-11.82-19.96c-4.05,7.01-7.62,13.21-11.51,19.96
			C280.98,112.78,288.19,112.78,296.13,112.78z"/>
		<path class="st0" d="M136.03,72.2c0,11.55,0.04,23.11-0.01,34.66c-0.04,8.74-3.35,12.02-12.17,12.03
			c-23.43,0.03-46.87,0.03-70.3,0c-8.48-0.01-11.93-3.36-11.96-11.79c-0.07-23.6-0.07-47.19,0-70.79
			c0.02-8.43,3.47-11.76,11.97-11.77c23.6-0.04,47.19-0.04,70.79,0c8.19,0.02,11.62,3.41,11.67,11.53
			C136.08,48.11,136.03,60.15,136.03,72.2z M115.9,98.93c0-18.45,0-36.38,0-54.26c-18.28,0-36.22,0-54.11,0c0,18.27,0,36.2,0,54.26
			C79.96,98.93,97.78,98.93,115.9,98.93z"/>
		<path class="st0" d="M375.71,71.71c0-12.04-0.07-24.09,0.03-36.13c0.06-7.51,3.59-10.89,11.17-11.06
			c0.49-0.01,0.98-0.01,1.46-0.01c23.11,0,46.22,0,69.33,0c0.81,0,1.63-0.02,2.44,0.02c6.08,0.34,9.5,3.69,9.98,9.81
			c0.09,1.13,0.07,2.28,0.07,3.42c0,22.62,0,45.24,0,67.86c0,1.3,0.01,2.61-0.12,3.9c-0.56,5.62-3.87,8.88-9.43,9.3
			c-1.13,0.09-2.28,0.06-3.42,0.06c-22.95,0-45.89,0-68.84,0c-0.81,0-1.63,0.02-2.44-0.02c-6.38-0.3-9.89-3.73-10.18-10.07
			c-0.11-2.44-0.04-4.88-0.04-7.32C375.7,91.56,375.7,81.64,375.71,71.71z M449.96,98.93c0-18.4,0-36.34,0-54.28
			c-18.27,0-36.2,0-54.15,0c0,18.25,0,36.19,0,54.28C413.95,98.93,431.77,98.93,449.96,98.93z"/>
		<path class="st0" d="M188.59,189.23c-0.31,5.3-4.88,9.48-10.03,9.16c-5.47-0.33-9.82-5-9.58-10.29c0.26-5.63,5.04-9.66,10.94-9.21
			C185.24,179.3,188.91,183.68,188.59,189.23z"/>
		<path class="st0" d="M411.4,398.2c0,5.58-4.33,9.94-9.85,9.91c-5.45-0.04-9.92-4.58-9.84-10.01c0.08-5.23,4.38-9.49,9.72-9.62
			C407.02,388.33,411.4,392.61,411.4,398.2z"/>
	</g>
</g>
<g id="guias">
</g>
</svg>
