<?xml version="1.0" encoding="utf-8"?>
<!-- Generator: Adobe Illustrator 24.0.0, SVG Export Plug-In . SVG Version: 6.00 Build 0)  -->
<svg version="1.1" xmlns="http://www.w3.org/2000/svg" xmlns:xlink="http://www.w3.org/1999/xlink" x="0px" y="0px"
	 viewBox="0 0 512 512" style="enable-background:new 0 0 512 512;" xml:space="preserve">
<style type="text/css">
	.st0{fill:#0A4436;}
	.st1{clip-path:url(#SVGID_4_);}
	.st2{clip-path:url(#SVGID_8_);}
	.st3{fill:#FFFFFF;}
	.st4{fill:#30D686;}
	.st5{fill:#4D5F61;}
	.st6{fill:#ED9A56;}
	.st7{fill:#2C84C6;}
	.st8{fill:#EFD354;}
	.st9{fill:#024433;}
	.st10{fill:#F92C0B;}
	.st11{clip-path:url(#SVGID_10_);fill:#0A4436;}
	.st12{fill:#3DD367;}
	.st13{fill:#FF6D00;}
	.st14{fill:#0074FF;}
	.st15{clip-path:url(#SVGID_12_);}
	.st16{fill:#55CD6C;}
	.st17{fill:#2BCC65;}
	.st18{fill:url(#SVGID_15_);}
	.st19{fill:url(#SVGID_18_);}
</style>
<g id="Capa_1">
	<g>
		<g>
			<path class="st0" d="M95.29,169.1c-15.31-4.74-23.28-17.86-22.65-31.15c0.22-4.67-0.01-9.37,0.04-14.05
				c0.18-17.04,12.62-29.57,29.57-29.76c6.57-0.07,13.14-0.01,20.26-0.01c0-5.55,0-10.84,0-16.48c7.24,0.17,11.98,3.29,14.97,9.1
				c3.16,6.14,2.48,13.7-2.56,18.28c-3.38,3.07-4.15,6.22-4.01,10.41c0.25,7.63-0.09,15.27,0.11,22.9
				c0.42,16.28-10.8,27.3-21.95,29.8c-0.3,0.07-0.57,0.32-1.65,0.97c2.44,0,4.08,0,5.73,0c10.58,0,21.17,0.18,31.75-0.07
				c5.06-0.12,8.41,1.79,11.28,5.9c10.63,15.21,21.5,30.25,32.29,45.34c1.2,1.69,2.46,3.34,3.9,5.3c1.3-0.31,2.62-0.53,3.88-0.95
				c20.55-6.81,41.08-13.65,61.62-20.48c0.99-0.33,1.97-0.68,2.96-0.97c5.69-1.67,9.52,0.11,11.55,5.61
				c1.61,4.39,2.95,8.87,4.44,13.31c0.55,1.63,1.16,3.24,1.91,5.33c4.99,0,10,0.29,14.96-0.07c6.11-0.45,9.91,1.95,13.06,7.24
				c22.4,37.7,45.04,75.26,67.61,112.87c0.89,1.49,1.79,2.97,2.98,4.92c5.62,0,11.49,0,17.37,0c3.3,0,6.59-0.05,9.89,0.01
				c6.49,0.13,9.56,3.12,9.61,9.61c0.08,11.1,0.03,22.21,0.03,33.31c0,7.46,0.06,14.92-0.02,22.38c-0.08,6.49-3.12,9.52-9.59,9.64
				c-4.14,0.08-8.28,0.01-12.93,0.01c1,4.13,1.87,7.77,2.75,11.42c0.89,3.67,1.78,7.34,2.79,11.52c-5.41,1.37-10.53,2.67-16,4.06
				c-2.31-9.05-4.52-17.75-6.81-26.71c-7.95,0-15.87,0-24.31,0c1.8,7.47,3.57,14.77,5.47,22.66c-5.35,1.35-10.48,2.65-16,4.05
				c-2.29-8.97-4.51-17.67-6.8-26.67c-81.63,0-163.27,0-245.26,0c-2.26,8.8-4.52,17.62-6.84,26.64c-5.41-1.36-10.42-2.63-15.96-4.03
				c1.83-7.59,3.6-14.93,5.52-22.91c-8.15,0-16,0-24.29,0c-2.29,8.94-4.55,17.76-6.91,26.93c-5.43-1.38-10.54-2.67-15.98-4.05
				c1.87-7.76,3.64-15.08,5.53-22.91c-2.17,0-3.88,0.04-5.58-0.01c-9.96-0.28-16.83-7.23-16.94-17.28
				c-0.1-8.67-0.02-17.35-0.02-26.03c0-45.63,0-91.26,0.01-136.9c0-2.08-0.09-4.2,0.3-6.22c1.49-7.75,8.19-13.32,16.3-13.46
				c7.98-0.14,15.96-0.03,23.94-0.04c1.72,0,3.45,0,5.72,0c-0.38-1.9-0.62-3.51-1.04-5.08c-1.9-7.2-4-14.35-5.76-21.59
				c-4.12-16.91,7.35-31.47,24.83-31.63C78.65,169.03,86.97,169.1,95.29,169.1z M397.21,410.47c0-14,0-27.6,0-41.16
				c-14.67-1.08-320.44-0.56-324.26,0.5c0,13.5,0,26.97,0,40.66C181.09,410.47,288.97,410.47,397.21,410.47z M90.51,302.68
				c38.73-1.53,76.92,1.12,115.47,3.37c-0.13-2.13-0.21-3.61-0.3-5.14c-0.96-0.25-1.61-0.45-2.28-0.59
				c-27.67-5.6-55.32-11.3-83.03-16.7c-6.01-1.17-9.32-4.05-11.02-10.01c-5.45-19.15-11.3-38.19-17-57.27
				c-1.08-3.62-2.16-7.24-3.36-11.28c5.44-1.63,10.48-3.15,15.87-4.77c6.84,22.71,13.56,45.02,20.23,67.15
				c12.69,2.42,24.67,5.23,37.82,7.37c-10.52-14.77-20.34-28.56-30.36-42.62c4.72-3.31,9.05-6.33,13.6-9.52
				c12.61,17.63,24.89,34.79,37.34,52.19c26.53-14.48,52.63-28.72,78.99-43.1c-1.24-3.64-2.34-6.86-3.53-10.35
				c-1.94,0.62-3.56,1.11-5.16,1.64c-19.88,6.62-39.75,13.26-59.64,19.85c-6.52,2.16-8.95,1.38-12.9-4.12
				c-7.69-10.7-15.33-21.44-22.99-32.16c-4.94-6.91-9.87-13.81-14.63-20.47c-0.53-0.17-0.69-0.26-0.86-0.26
				c-24.28-0.05-48.56-0.17-72.85-0.09c-6.31,0.02-9.85,4.79-8.33,10.9c1.25,5.03,3.02,9.93,4.37,14.94
				c4.72,17.56,9.33,35.15,14.05,52.7C83.4,276.9,86.87,289.41,90.51,302.68z M55.82,244.45c-11.28,0-22.1,0-32.89,0
				c0,55.5,0,110.61,0,165.94c11.06,0,21.87,0,32.89,0C55.82,354.98,55.82,299.87,55.82,244.45z M103.93,352.01
				c59.3,0,118.03,0,176.76,0c0-8.46,0-16.55,0-24.96c-61.73-4.41-123.34-5.59-185.57-7.46
				C98.19,330.88,101.04,341.38,103.93,352.01z M223.1,297.23c1.63-0.91,3.14-1.7,4.6-2.57c12.79-7.65,25.56-15.32,38.34-22.99
				c6.71-4.02,9.83-3.51,14.67,2.53c10.85,13.53,21.67,27.08,32.51,40.62c9.21,11.51,18.4,23.04,27.68,34.49
				c1.01,1.25,2.51,2.78,3.9,2.91c4.07,0.39,8.2,0.14,13.06,0.14c-21.94-36.57-43.48-72.47-64.97-108.28
				c-5.15,0-9.84,0.1-14.51-0.04c-2.53-0.07-4.69,0.6-6.89,1.8c-21.11,11.58-42.27,23.08-63.41,34.62
				c-1.33,0.72-2.59,1.57-4.55,2.77c3.93,0.86,7.07,1.53,10.2,2.24c6.83,1.55,8.31,3.23,8.94,10.04
				C222.7,295.98,222.9,296.45,223.1,297.23z M114.26,110.83c-4.78,0-8.93-0.2-13.05,0.05c-6.5,0.38-11.44,5.19-11.75,11.65
				c-0.29,6.04-0.3,12.12,0,18.16c0.33,6.64,5.83,11.65,12.27,11.71c6.45,0.06,12.22-4.87,12.45-11.49
				C114.51,131.08,114.26,121.24,114.26,110.83z M289.36,311.65c-6.52-8.14-12.52-15.64-18.71-23.36
				c-10.61,6.38-20.78,12.49-32.04,19.27C256.01,309.61,272.43,308.6,289.36,311.65z M297.64,322.02c0,10.09,0,20.05,0,30.17
				c8.17,0,15.74,0,24.12,0C313.44,341.78,305.49,331.84,297.64,322.02z M86.68,352.14c-2.69-9.86-5.34-18.98-7.61-28.2
				c-0.98-3.96-2.63-7.16-6.13-9.34c0,12.5,0,24.91,0,37.54C77.45,352.14,81.71,352.14,86.68,352.14z"/>
			<path class="st0" d="M468.2,192.55c3.45,2.87,6.89,5.75,10.52,8.77c-4.59,4.29-8.46,7.91-12.66,11.84
				c-5.83-5.87-12.06-11.89-17.98-18.2c-2.7-2.87-5.5-4.03-9.49-4.01c-33.14,0.16-66.28,0.14-99.42,0.02
				c-3.41-0.01-5.84,0.96-8.16,3.42c-4.99,5.3-10.25,10.36-15.42,15.5c-1.21,1.2-2.47,2.34-3.71,3.51
				c-3.9-3.91-7.55-7.58-11.58-11.62c3.18-3.3,6.36-6.59,10.37-10.74c-4.62,0-8.14,0-11.67,0c-5.21,0-10.43-0.28-15.61,0.07
				c-7.44,0.49-10.94-3.93-10.89-11.09c0.23-33.14,0.1-66.28,0.1-99.42c0-4.51-0.08-9.02,0.02-13.53c0.13-5.85,3.19-8.96,8.95-9.29
				c1.38-0.08,2.78-0.02,4.16-0.02c69.06,0,138.12,0.07,207.17-0.09c8.28-0.02,13.19,1.61,13.08,13.24
				c-0.35,35.74-0.13,71.49-0.13,107.23c0,1.39,0.05,2.78-0.02,4.16c-0.29,5.55-3.29,8.62-8.88,8.71
				c-7.81,0.12-15.62,0.04-23.42,0.04c-1.53,0-3.06,0-4.6,0C468.7,191.54,468.45,192.05,468.2,192.55z M289.51,174.02
				c66.75,0,133.08,0,199.38,0c1.05-12.33,0.58-95.67-0.5-99.33c-66.23,0-132.44,0-198.88,0
				C289.51,107.86,289.51,140.76,289.51,174.02z"/>
		</g>
	</g>
</g>
<g id="guias">
</g>
</svg>
