<?xml version="1.0" encoding="utf-8"?>
<!-- Generator: Adobe Illustrator 24.0.0, SVG Export Plug-In . SVG Version: 6.00 Build 0)  -->
<svg version="1.1" xmlns="http://www.w3.org/2000/svg" xmlns:xlink="http://www.w3.org/1999/xlink" x="0px" y="0px"
	 viewBox="0 0 512 512" style="enable-background:new 0 0 512 512;" xml:space="preserve">
<style type="text/css">
	.st0{fill:#0A4436;}
	.st1{clip-path:url(#SVGID_4_);}
	.st2{clip-path:url(#SVGID_8_);}
	.st3{fill:#FFFFFF;}
	.st4{fill:#30D686;}
	.st5{fill:#4D5F61;}
	.st6{fill:#ED9A56;}
	.st7{fill:#2C84C6;}
	.st8{fill:#EFD354;}
	.st9{fill:#024433;}
	.st10{fill:#F92C0B;}
	.st11{clip-path:url(#SVGID_10_);fill:#0A4436;}
	.st12{fill:#3DD367;}
	.st13{fill:#FF6D00;}
	.st14{fill:#0074FF;}
	.st15{clip-path:url(#SVGID_12_);}
	.st16{fill:#55CD6C;}
	.st17{fill:#2BCC65;}
	.st18{fill:url(#SVGID_15_);}
	.st19{fill:url(#SVGID_18_);}
</style>
<g id="Capa_1">
	<g>
		<path class="st17" d="M445.09,167.75C430.05,74.89,350.61,6.86,256.19,6c-0.09,0-0.19,0-0.28,0c-1.26,0-2.52,0.08-3.77,0.23
			c-3.06,0.38-6.14,0.67-9.23,0.97c-7.65,0.74-16.31,1.58-25.18,3.52C154.47,24.6,107.15,62.9,80.9,121.47
			c-16.68,37.21-20.58,74.31-11.61,110.25c8.11,32.47,22.66,61.63,34.42,83.4c28.78,53.24,65.6,108.03,115.86,172.44
			c9.14,11.72,22.41,18.44,36.42,18.44c14.67,0,28.4-7.29,37.67-19.98l15.16-20.7c17.9-24.4,36.4-49.63,53.96-75.18
			c29.63-43.1,51.94-83.24,68.21-122.7C445.61,232.02,450.22,199.41,445.09,167.75z M256.19,125.16L256.19,125.16L256.19,125.16
			L256.19,125.16z"/>
		<g>
			<g>
				<path class="st3" d="M255.91,37.02c78.78,0.72,146.02,58.29,158.56,135.69c4.72,29.14-1.18,56.3-12.15,82.92
					c-17.12,41.53-39.75,80.08-65.1,116.95c-22.15,32.22-45.56,63.56-68.62,95.15c-6.88,9.42-17.63,9.65-24.57,0.75
					C202.39,415.11,163.26,360.04,131,300.37c-13.13-24.29-24.89-49.21-31.61-76.16c-7.79-31.19-3.04-61.35,9.82-90.05
					c22.53-50.28,61.35-81.32,115.18-93.14C234.7,38.76,245.4,38.3,255.91,37.02z M256.22,241.67c31.76-0.01,58-26.16,58.08-57.88
					c0.07-32.4-26.06-58.71-58.24-58.63c-32.36,0.08-58.37,26.2-58.3,58.56C197.82,215.68,224.06,241.68,256.22,241.67z"/>
			</g>
		</g>
	</g>
</g>
<g id="guias">
</g>
</svg>
