<?xml version="1.0" encoding="utf-8"?>
<!-- Generator: Adobe Illustrator 24.0.0, SVG Export Plug-In . SVG Version: 6.00 Build 0)  -->
<svg version="1.1" xmlns="http://www.w3.org/2000/svg" xmlns:xlink="http://www.w3.org/1999/xlink" x="0px" y="0px"
	 viewBox="0 0 512 512" style="enable-background:new 0 0 512 512;" xml:space="preserve">
<style type="text/css">
	.st0{fill:#0A4436;}
	.st1{clip-path:url(#SVGID_4_);}
	.st2{clip-path:url(#SVGID_8_);}
	.st3{fill:#FFFFFF;}
	.st4{fill:#30D686;}
	.st5{fill:#4D5F61;}
	.st6{fill:#ED9A56;}
	.st7{fill:#2C84C6;}
	.st8{fill:#EFD354;}
	.st9{fill:#024433;}
	.st10{fill:#F92C0B;}
	.st11{clip-path:url(#SVGID_10_);fill:#0A4436;}
	.st12{fill:#3DD367;}
	.st13{fill:#FF6D00;}
	.st14{fill:#0074FF;}
	.st15{clip-path:url(#SVGID_12_);}
	.st16{fill:#55CD6C;}
	.st17{fill:#2BCC65;}
	.st18{fill:url(#SVGID_15_);}
	.st19{fill:url(#SVGID_18_);}
</style>
<g id="Capa_1">
	<g>
		<path class="st8" d="M14.03,280.16c0-16.53,0-32.72,0-49.11c-1.32,0-2.57,0.02-3.82-0.01c-0.81-0.02-1.62-0.06-2.41-0.21
			c-0.81-0.15-1.29-0.72-1.34-1.56c-0.04-0.77,0.61-1.52,1.47-1.68c0.46-0.09,0.94-0.05,1.41-0.05c8.03,0,16.06,0,24.09,0
			c0.4,0,0.82-0.03,1.21,0.04c0.95,0.16,1.55,0.8,1.57,1.59c0.01,0.79-0.54,1.51-1.42,1.74c-0.45,0.12-0.93,0.13-1.4,0.13
			c-1.4,0.02-2.81,0.01-4.29,0.01c0,9.57,0,19.04,0,28.57c7.17,0,14.23,0,21.39,0c0-9.53,0-19.01,0-28.57
			c-1.63,0-3.16,0.02-4.7-0.01c-0.53-0.01-1.08-0.06-1.59-0.2c-0.8-0.23-1.24-0.88-1.2-1.68c0.04-0.81,0.55-1.38,1.37-1.54
			c0.46-0.09,0.94-0.08,1.41-0.08c8.1,0,16.2,0,24.29,0c0.2,0,0.41-0.01,0.61,0c1.38,0.07,2.07,0.63,2.12,1.65
			c0.04,0.89-0.85,1.94-2.19,1.87c-1.35-0.07-2.7-0.04-4.05-0.05c-0.26,0-0.51,0-0.74,0c-0.4,1.58-0.46,46.91-0.06,49.15
			c1.29,0,2.62,0,3.95,0c0.34,0,0.68-0.01,1.01,0.01c1.34,0.07,2.08,0.68,2.07,1.7c-0.01,1.03-0.73,1.73-2.05,1.77
			c-1.14,0.04-2.29-0.12-3.43-0.12c-7.02-0.01-14.04,0-21.05,0c-0.54,0-1.08,0.03-1.62-0.02c-0.98-0.1-1.68-0.84-1.66-1.7
			c0.02-0.76,0.67-1.48,1.58-1.58c0.87-0.09,1.75-0.05,2.63-0.05c1.06-0.01,2.13,0,3.29,0c0-5.72,0-11.22,0-16.71
			c-1.47-0.37-18.26-0.49-21.18-0.16c-0.38,1.44-0.45,14.56-0.05,16.86c1.35,0,2.75-0.01,4.15,0.01c0.54,0.01,1.09,0,1.6,0.13
			c0.76,0.19,1.31,0.98,1.19,1.67c-0.13,0.78-0.52,1.4-1.4,1.51c-0.47,0.05-0.94,0.05-1.41,0.05c-8.03,0-16.06,0-24.09,0
			c-0.4,0-0.81,0.03-1.21-0.02c-0.93-0.11-1.58-0.73-1.62-1.51c-0.05-0.85,0.65-1.71,1.59-1.78c1.14-0.08,2.29-0.04,3.44-0.04
			C12.27,280.16,13.07,280.16,14.03,280.16z M17.67,231.03c0,9.69,0,19.16,0,28.55c2.67,0,5.19,0,7.71,0
			c0.38-5.87,0.2-27.09-0.23-28.55C22.67,231.03,20.19,231.03,17.67,231.03z M61.81,259.55c0.34-2.94,0.21-27.12-0.14-28.5
			c-1.21,0-2.42-0.01-3.63,0c-1.26,0.01-2.51,0.04-3.85,0.07c0,9.57,0,18.92,0,28.43C56.75,259.55,59.21,259.55,61.81,259.55z
			 M61.92,263.15c-1.46,0-2.66,0-3.86,0c-1.26,0-2.52,0-3.73,0c-0.39,2.72-0.29,15.52,0.13,17.01c1.24,0,2.51,0.04,3.78-0.01
			c1.24-0.05,2.52,0.27,3.67-0.25C61.92,274.34,61.92,268.9,61.92,263.15z M17.8,263.22c-0.38,2.98-0.26,15.45,0.17,16.92
			c2.43,0.03,4.89,0.05,7.31,0c0.39-2.93,0.27-15.5-0.15-16.92C22.74,263.22,20.33,263.22,17.8,263.22z"/>
		<path class="st8" d="M121.11,264.38c4.95-11.5,9.73-22.62,14.66-34.06c-1.49-0.01-2.67-0.02-3.86-0.03
			c-0.61-0.01-1.22,0.03-1.81-0.07c-0.8-0.14-1.39-0.85-1.33-1.55c0.08-0.79,0.46-1.42,1.3-1.61c0.39-0.09,0.8-0.07,1.21-0.07
			c4.72,0,9.45-0.01,14.17,0c1.7,0,2.51,0.52,2.58,1.6c0.07,1.11-0.82,1.68-2.67,1.69c-1.88,0.01-3.77,0-5.84,0
			c-0.91,2.04-1.83,4.05-2.7,6.07c-6.61,15.35-13.21,30.71-19.8,46.07c-0.36,0.83-0.65,1.62-1.73,1.73
			c-1.24,0.12-1.8-0.15-2.35-1.41c-1.17-2.65-2.31-5.32-3.45-7.98c-5.67-13.19-11.34-26.38-17.01-39.57
			c-0.69-1.6-1.4-3.19-2.15-4.91c-1.83,0-3.57,0-5.32,0c-0.54,0-1.09,0.04-1.61-0.06c-0.81-0.15-1.3-0.79-1.32-1.56
			c-0.01-0.77,0.47-1.43,1.27-1.6c0.45-0.1,0.94-0.07,1.41-0.07c8.77,0,17.54-0.01,26.31,0c0.47,0,0.96-0.03,1.41,0.07
			c0.87,0.19,1.36,0.94,1.27,1.81c-0.08,0.81-0.54,1.32-1.46,1.38c-1.07,0.07-2.16,0.03-3.24,0.03c-0.72,0-1.45,0-2.52,0
			C111.43,241.72,116.18,252.84,121.11,264.38z M102.86,230.29c-1.6,0-3.01-0.04-4.42,0.01c-1.37,0.04-2.77-0.21-4.31,0.22
			c2.35,5.46,4.64,10.77,6.92,16.08c2.29,5.32,4.59,10.64,6.87,15.98c2.26,5.29,4.48,10.59,7.01,16.25
			c1.59-3.71,2.99-6.96,4.37-10.15C113.81,255.88,108.38,243.19,102.86,230.29z"/>
		<path class="st8" d="M169.09,255.52c0-13,0-26,0-39c0-0.35-0.04-0.71,0.03-1.05c0.1-0.48,0.72-0.82,1.43-0.85
			c0.68-0.03,1.45,0.27,1.67,0.71c0.11,0.22,0.11,0.46,0.12,0.69c0.02,0.55,0.01,1.09,0.01,1.64c0,25.65,0,51.3-0.01,76.95
			c0,0.35,0.05,0.71-0.04,1.05c-0.14,0.57-0.95,0.96-1.79,0.91c-0.78-0.05-1.33-0.41-1.41-0.99c-0.04-0.31-0.01-0.62-0.01-0.94
			C169.09,281.6,169.09,268.56,169.09,255.52z"/>
		<g>
			<path class="st8" d="M408.49,260.09c0-5.16,0-10.22,0-15.34c0.21-0.03,0.39-0.07,0.57-0.07c2.95,0,5.9,0,8.85,0
				c1.14,0,2.23,0.2,3.2,0.85c2.13,1.43,2.27,4.05,0.29,5.68c-0.12,0.1-0.25,0.18-0.44,0.32c0.2,0.11,0.33,0.2,0.46,0.26
				c2.62,1.19,2.7,4.54,1.28,6.32c-1.06,1.34-2.47,1.94-4.11,1.96C415.27,260.12,411.94,260.09,408.49,260.09z M411.91,257.23
				c0.22,0.02,0.38,0.05,0.53,0.05c1.83,0,3.65,0,5.48,0c0.19,0,0.39-0.01,0.57-0.04c0.87-0.15,1.49-0.79,1.63-1.67
				c0.11-0.64-0.3-1.5-0.97-1.84c-0.39-0.2-0.84-0.33-1.27-0.34c-1.83-0.04-3.65-0.02-5.48-0.01c-0.15,0-0.3,0.04-0.49,0.07
				C411.91,254.71,411.91,255.91,411.91,257.23z M411.92,250.86c1.92,0,3.74,0.01,5.56-0.01c0.25,0,0.51-0.08,0.74-0.17
				c0.68-0.25,1.16-0.98,1.11-1.64c-0.05-0.73-0.52-1.33-1.25-1.52c-0.31-0.08-0.63-0.1-0.95-0.1c-1.44-0.01-2.88-0.01-4.32,0
				c-0.28,0-0.56,0.03-0.89,0.05C411.92,248.59,411.92,249.67,411.92,250.86z"/>
			<path class="st8" d="M469.95,244.7c0.95,0,1.84,0,2.91,0c2.52,3.05,5.13,6.23,7.75,9.4c0.05-0.02,0.1-0.05,0.15-0.07
				c0-3.09,0-6.19,0-9.33c1.11,0,2.15,0,3.19,0c0.2,0.68,0.28,13.61,0.09,15.36c-0.9,0.08-1.82,0.03-2.82,0.02
				c-2.56-3.1-5.14-6.23-7.72-9.36c-0.06,0.02-0.13,0.04-0.19,0.06c0,1.55,0,3.09,0,4.64c0,1.53,0,3.06,0,4.64
				c-1.17,0-2.25,0-3.36,0C469.95,254.92,469.95,249.84,469.95,244.7z"/>
			<path class="st8" d="M284.9,250.75c0,1.53,0,3.06,0,4.59c0,1.54,0,3.07,0,4.63c-0.57,0.23-1.12,0.1-1.65,0.13
				c-0.51,0.02-1.02,0.01-1.64,0.01c-0.1-2.6-0.03-5.14-0.04-7.69c-0.01-2.53,0-5.06,0-7.67c0.98,0,1.9,0,2.95,0
				c2.51,3.04,5.11,6.2,7.86,9.54c0-3.32,0-6.41,0-9.54c1.17,0,2.24,0,3.36,0c0,5.11,0,10.17,0,15.28c-0.94,0.18-1.9,0.02-2.87,0.1
				c-2.6-3.16-5.17-6.29-7.75-9.42C285.04,250.71,284.97,250.73,284.9,250.75z"/>
			<path class="st8" d="M303.16,260.1c-0.2-0.86-0.21-14.55-0.03-15.35c0.09-0.02,0.18-0.06,0.27-0.06c2.63,0,5.26-0.06,7.89,0.03
				c4.13,0.13,6.98,3.09,7.1,7.22c0.04,1.53-0.16,3-0.91,4.37c-1.16,2.13-2.95,3.33-5.34,3.63c-0.92,0.12-1.85,0.14-2.78,0.16
				c-1.76,0.02-3.53,0.01-5.29,0.01C303.75,260.1,303.44,260.1,303.16,260.1z M306.44,257.2c1.64-0.03,3.23,0.12,4.82-0.1
				c1.75-0.23,2.81-1.31,3.36-2.9c0.42-1.21,0.39-2.46,0.01-3.69c-0.52-1.69-1.92-2.83-3.66-2.91c-1.44-0.06-2.88-0.02-4.32-0.01
				c-0.08,0-0.16,0.08-0.22,0.12C306.44,250.86,306.44,253.99,306.44,257.2z"/>
			<path class="st8" d="M203.93,260.05c-1.11,0-2.18,0-3.35,0c0-2.28,0-4.51,0-6.79c-2.46,0-4.82,0-7.29,0
				c-0.09,2.24,0.01,4.5-0.06,6.79c-1.1,0-2.12,0-3.13,0c-0.03-0.03-0.06-0.04-0.08-0.07c-0.02-0.02-0.05-0.05-0.05-0.08
				c-0.02-4.81-0.03-9.62-0.05-14.42c0-0.25,0-0.5,0-0.79c1.11,0,2.16,0,3.31,0c0,1.82,0,3.67,0,5.48c0.79,0.21,6.27,0.24,7.33,0.05
				c0-1.79,0-3.61,0-5.53c1.16-0.02,2.23-0.03,3.37,0C203.93,249.84,203.93,254.92,203.93,260.05z"/>
			<path class="st8" d="M262.38,244.74c4.29,0,8.51,0,12.77,0c0,0.94,0,1.82,0,2.81c-1.06,0.05-2.07,0.02-3.09,0.02
				c-1.06,0-2.12,0-3.18,0c-1.02,0-2.04,0-3.13,0c-0.18,1.02-0.09,1.96-0.09,2.99c1.95,0,3.8,0,5.67,0c0,0.98,0,1.87,0,2.84
				c-1.86,0-3.67,0-5.45,0c-0.28,0.77-0.33,2.65-0.1,3.76c1.05,0.08,2.13,0.03,3.21,0.04c1.12,0.01,2.25,0,3.37,0
				c1.09,0,2.17,0,3.32,0c0,0.95,0,1.84,0,2.75c0,0-0.02,0.02-0.04,0.04c-0.02,0.02-0.05,0.05-0.08,0.05
				c-4.26,0.01-8.53,0.02-12.79,0.03c-0.12,0-0.24-0.03-0.41-0.05C262.38,254.95,262.38,249.89,262.38,244.74z"/>
			<path class="st8" d="M464.03,260.06c-4.42,0-8.77,0-13.1,0c-0.04-0.03-0.07-0.05-0.09-0.07c-0.02-0.02-0.04-0.05-0.04-0.08
				c-0.02-4.77-0.03-9.55-0.04-14.32c0-0.25,0.02-0.5,0.03-0.74c0.77-0.22,9.44-0.29,12.7-0.12c0,0.91,0,1.83,0,2.85
				c-1.6,0-3.17,0-4.73,0c-1.53,0-3.06,0-4.64,0c0,1.02,0,1.93,0,2.96c1.87,0.05,3.71-0.01,5.61,0.04c0,0.96,0,1.84,0,2.82
				c-0.91,0.1-1.83,0.03-2.74,0.05c-0.93,0.01-1.85,0-2.89,0c-0.01,0.65-0.03,1.25-0.03,1.84c-0.01,0.6,0,1.21,0,1.93
				c1.72,0.03,3.38,0.01,5.04,0.01c1.63,0,3.25,0,4.94,0C464.03,258.19,464.03,259.07,464.03,260.06z"/>
			<path class="st8" d="M429.72,244.69c1.07,0,2.11,0,3.25,0c0.02,0.25,0.06,0.53,0.06,0.8c0,2.88,0.08,5.77-0.02,8.65
				c-0.08,2.46,1.78,3.5,3.45,3.5c0.38,0,0.77,0.01,1.15-0.06c1.76-0.31,2.73-1.45,2.74-3.29c0.02-2.82,0.01-5.64,0.01-8.46
				c0-0.35,0-0.69,0-1.13c1.13,0,2.17,0,3.27,0c0.02,0.18,0.06,0.39,0.06,0.6c0,3.04-0.03,6.09,0.01,9.13
				c0.04,2.73-1.49,4.92-4.24,5.69c-2.36,0.66-4.69,0.63-6.9-0.56c-1.85-0.99-2.86-2.59-2.91-4.66c-0.08-3.3-0.02-6.6-0.01-9.9
				C429.64,244.96,429.67,244.9,429.72,244.69z"/>
			<path class="st8" d="M216.26,244.66c1.03,0,1.92,0,2.92,0c2.36,5.08,4.72,10.18,7.15,15.41c-0.68,0.03-1.28,0.02-1.87,0.02
				c-0.57,0-1.15,0-1.79,0c-0.49-1.09-0.97-2.16-1.46-3.24c-2.38,0-4.72,0-7.16,0c-0.46,1.03-0.94,2.1-1.43,3.2
				c-1.14,0-2.25,0-3.52,0C211.52,254.87,213.89,249.77,216.26,244.66z M220.03,254.12c-0.74-1.86-1.5-3.62-2.33-5.43
				c-0.8,1.22-2.24,4.72-2.26,5.43C216.93,254.12,218.43,254.12,220.03,254.12z"/>
			<path class="st8" d="M496.37,244.7c1.07,0,1.99,0,2.96,0c2.37,5.1,4.72,10.18,7.12,15.34c-1.26,0-2.43,0-3.67,0
				c-0.46-1.03-0.93-2.08-1.42-3.16c-2.38,0-4.74,0-7.18,0c-0.45,1.02-0.9,2.07-1.38,3.16c-1.15,0-2.29,0-3.54,0
				C491.65,254.88,494.02,249.78,496.37,244.7z M497.88,248.75c-0.07,0-0.14,0-0.21,0.01c-0.78,1.75-1.54,3.5-2.28,5.3
				c1.31,0.18,4.01,0.14,4.74-0.07C499.38,252.24,498.63,250.5,497.88,248.75z"/>
			<path class="st8" d="M371.91,260.07c-1.21,0-2.29,0-3.53,0c2.39-5.17,4.74-10.26,7.13-15.35c1.03,0,1.98,0,2.97,0
				c2.36,5.1,4.72,10.17,7.11,15.34c-1.27,0-2.42,0-3.67,0c-0.47-1.04-0.95-2.11-1.43-3.19c-2.41,0-4.77,0-7.18,0
				C372.84,257.93,372.38,258.98,371.91,260.07z M379.18,254.12c-0.25-1.16-1.91-4.87-2.4-5.36c-0.76,1.78-1.5,3.53-2.28,5.36
				C376.11,254.12,377.61,254.12,379.18,254.12z"/>
			<path class="st8" d="M329.21,244.69c0.99,0,1.94,0,2.94,0c2.38,5.12,4.74,10.2,7.13,15.36c-1.25,0-2.42,0-3.66,0
				c-0.23-0.49-0.47-1.01-0.7-1.53c-0.24-0.52-0.46-1.05-0.72-1.63c-2.37,0-4.73,0-7.2,0c-0.46,1.02-0.93,2.1-1.41,3.16
				c-1.16,0-2.26,0-3.52,0C324.49,254.87,326.84,249.79,329.21,244.69z M333.02,254.13c-0.82-1.91-1.58-3.69-2.42-5.65
				c-0.84,2-1.67,3.77-2.38,5.65C329.86,254.13,331.35,254.13,333.02,254.13z"/>
			<path class="st8" d="M245.83,246.93c-0.79,0.71-1.5,1.35-2.18,1.96c-0.86-0.44-1.71-0.95-2.62-1.33
				c-1.01-0.43-2.09-0.65-3.2-0.46c-2.3,0.39-3.72,1.74-4.28,3.99c-0.52,2.09,0.31,4.47,2.03,5.63c1.63,1.1,3.41,1.17,5.25,0.56
				c0.99-0.33,1.85-0.87,2.66-1.52c0.2-0.16,0.39-0.32,0.61-0.5c0.7,0.7,1.38,1.38,2.12,2.12c-0.22,0.2-0.42,0.39-0.63,0.56
				c-2.41,1.94-5.16,2.82-8.24,2.53c-4.18-0.39-7-3.45-7.39-7.23c-0.53-5.17,3.36-9.02,8.07-9.1c2.58-0.04,4.93,0.7,7.05,2.16
				C245.28,246.46,245.46,246.64,245.83,246.93z"/>
			<path class="st8" d="M359.51,260.08c-1.01,0-1.9,0-2.9,0c-2.4-5.06-4.72-10.18-7.16-15.4c0.71,0,1.32,0,1.94,0
				c0.61,0,1.21,0,1.86,0c1.6,3.74,3.19,7.44,4.86,11.35c1.67-3.88,3.26-7.58,4.86-11.29c1.21,0,2.38,0,3.65,0
				C364.24,249.88,361.89,254.95,359.51,260.08z"/>
			<path class="st8" d="M394.04,257.19c3.1,0,6.07,0,9.1,0c0,0.98,0,1.86,0,2.76c-0.62,0.18-11.18,0.23-12.36,0.04
				c0-5.07,0-10.15,0-15.29c1.06,0,2.1,0,3.25,0c0.03,1.43,0.01,2.79,0.01,4.16c0,1.35,0,2.69,0,4.04
				C394.04,254.28,394.04,255.66,394.04,257.19z"/>
			<path class="st8" d="M251.79,244.72c1.07,0,2.08,0,3.09,0c0.2,0.67,0.28,13.32,0.1,15.26c-0.5,0.22-1.05,0.08-1.58,0.1
				c-0.51,0.02-1.02,0.01-1.51,0.01C251.68,259.35,251.6,247.03,251.79,244.72z"/>
		</g>
	</g>
</g>
<g id="guias">
</g>
</svg>
