<?xml version="1.0" encoding="utf-8"?>
<!-- Generator: Adobe Illustrator 24.0.0, SVG Export Plug-In . SVG Version: 6.00 Build 0)  -->
<svg version="1.1" xmlns="http://www.w3.org/2000/svg" xmlns:xlink="http://www.w3.org/1999/xlink" x="0px" y="0px"
	 viewBox="0 0 512 512" style="enable-background:new 0 0 512 512;" xml:space="preserve">
<style type="text/css">
	.st0{fill:#0A4436;}
	.st1{clip-path:url(#SVGID_4_);}
	.st2{clip-path:url(#SVGID_8_);}
	.st3{fill:#FFFFFF;}
	.st4{fill:#30D686;}
	.st5{fill:#4D5F61;}
	.st6{fill:#ED9A56;}
	.st7{fill:#2C84C6;}
	.st8{fill:#EFD354;}
	.st9{fill:#024433;}
	.st10{fill:#F92C0B;}
	.st11{clip-path:url(#SVGID_10_);fill:#0A4436;}
	.st12{fill:#3DD367;}
	.st13{fill:#FF6D00;}
	.st14{fill:#0074FF;}
	.st15{clip-path:url(#SVGID_12_);}
	.st16{fill:#55CD6C;}
	.st17{fill:#2BCC65;}
	.st18{fill:url(#SVGID_15_);}
	.st19{fill:url(#SVGID_18_);}
</style>
<g id="Capa_1">
	<g>
		<path class="st8" d="M16.12,268.26c0-21.99,0-43.52,0-65.33c-1.75,0-3.42,0.03-5.09-0.01c-1.07-0.03-2.16-0.08-3.21-0.28
			c-1.08-0.2-1.72-0.96-1.78-2.07c-0.06-1.02,0.82-2.03,1.96-2.24c0.61-0.11,1.25-0.07,1.88-0.07c10.68,0,21.36-0.01,32.04,0
			c0.54,0,1.09-0.04,1.61,0.05c1.26,0.21,2.07,1.06,2.09,2.11c0.02,1.05-0.72,2.01-1.9,2.32c-0.6,0.16-1.24,0.17-1.86,0.18
			c-1.87,0.02-3.73,0.01-5.71,0.01c0,12.72,0,25.33,0,38c9.54,0,18.93,0,28.45,0c0-12.68,0-25.28,0-38c-2.16,0-4.21,0.02-6.26-0.01
			c-0.71-0.01-1.44-0.08-2.11-0.27c-1.07-0.31-1.65-1.17-1.6-2.23c0.05-1.07,0.73-1.83,1.82-2.05c0.61-0.12,1.25-0.11,1.87-0.11
			c10.77,0,21.54,0,32.31,0c0.27,0,0.54-0.01,0.81,0c1.84,0.09,2.75,0.83,2.81,2.2c0.05,1.19-1.12,2.59-2.92,2.49
			c-1.79-0.1-3.59-0.05-5.38-0.06c-0.34,0-0.68,0-0.99,0c-0.53,2.1-0.61,62.4-0.07,65.38c1.71,0,3.49,0,5.26,0
			c0.45,0,0.9-0.02,1.35,0.01c1.79,0.09,2.76,0.9,2.75,2.26c-0.01,1.37-0.98,2.3-2.73,2.36c-1.52,0.05-3.04-0.16-4.56-0.16
			c-9.34-0.02-18.67-0.01-28.01-0.01c-0.72,0-1.44,0.05-2.15-0.03c-1.31-0.13-2.24-1.12-2.21-2.26c0.02-1.01,0.89-1.97,2.11-2.1
			c1.15-0.12,2.33-0.06,3.5-0.07c1.41-0.01,2.83,0,4.38,0c0-7.6,0-14.92,0-22.23c-1.96-0.49-24.28-0.65-28.17-0.21
			c-0.51,1.92-0.6,19.37-0.07,22.43c1.8,0,3.66-0.01,5.52,0.01c0.71,0.01,1.45,0,2.13,0.17c1.01,0.26,1.74,1.3,1.59,2.22
			c-0.17,1.04-0.69,1.87-1.86,2c-0.62,0.07-1.25,0.06-1.88,0.06c-10.68,0-21.36,0-32.04,0c-0.54,0-1.08,0.04-1.61-0.03
			c-1.24-0.15-2.1-0.98-2.15-2.01c-0.06-1.13,0.86-2.27,2.11-2.36c1.52-0.11,3.05-0.05,4.58-0.06
			C13.78,268.25,14.84,268.26,16.12,268.26z M20.97,202.9c0,12.89,0,25.49,0,37.97c3.55,0,6.91,0,10.25,0
			c0.5-7.81,0.27-36.03-0.3-37.97C27.62,202.9,24.32,202.9,20.97,202.9z M79.68,240.84c0.45-3.91,0.28-36.08-0.19-37.91
			c-1.61,0-3.21-0.01-4.82,0c-1.67,0.02-3.34,0.06-5.12,0.09c0,12.73,0,25.17,0,37.82C72.94,240.84,76.22,240.84,79.68,240.84z
			 M79.83,245.63c-1.94,0-3.54,0-5.14,0c-1.68,0-3.35,0-4.96,0c-0.52,3.62-0.38,20.64,0.18,22.63c1.65,0,3.34,0.05,5.03-0.02
			c1.65-0.07,3.36,0.35,4.89-0.33C79.83,260.51,79.83,253.27,79.83,245.63z M21.13,245.72c-0.5,3.97-0.34,20.55,0.22,22.5
			c3.23,0.04,6.5,0.06,9.72,0c0.52-3.9,0.36-20.61-0.2-22.5C27.7,245.72,24.5,245.72,21.13,245.72z"/>
		<path class="st8" d="M411.62,251.1c0-4.97,0-9.85,0-14.78c0.2-0.03,0.37-0.07,0.55-0.07c2.84,0,5.69,0,8.53,0
			c1.1,0,2.15,0.19,3.09,0.82c2.06,1.38,2.19,3.91,0.28,5.48c-0.11,0.09-0.24,0.17-0.42,0.31c0.19,0.11,0.32,0.19,0.45,0.25
			c2.53,1.15,2.6,4.37,1.24,6.09c-1.02,1.29-2.38,1.87-3.96,1.89C418.15,251.13,414.94,251.1,411.62,251.1z M414.91,248.35
			c0.22,0.02,0.36,0.05,0.51,0.05c1.76,0,3.52,0,5.28,0c0.18,0,0.37-0.01,0.55-0.04c0.83-0.14,1.43-0.76,1.57-1.61
			c0.1-0.62-0.29-1.44-0.94-1.77c-0.37-0.19-0.81-0.32-1.23-0.33c-1.76-0.04-3.52-0.02-5.28-0.01c-0.15,0-0.29,0.04-0.47,0.07
			C414.91,245.91,414.91,247.08,414.91,248.35z M414.92,242.21c1.85,0,3.6,0.01,5.36-0.01c0.24,0,0.49-0.08,0.72-0.16
			c0.65-0.24,1.11-0.94,1.07-1.58c-0.05-0.7-0.5-1.28-1.21-1.46c-0.29-0.08-0.61-0.09-0.91-0.1c-1.39-0.01-2.78-0.01-4.16,0
			c-0.27,0-0.54,0.03-0.86,0.04C414.92,240.02,414.92,241.06,414.92,242.21z"/>
		<path class="st8" d="M158.56,247.97c6.58-15.3,12.95-30.09,19.49-45.31c-1.98-0.01-3.55-0.02-5.13-0.04
			c-0.81-0.01-1.63,0.04-2.41-0.09c-1.07-0.18-1.85-1.13-1.76-2.06c0.1-1.06,0.61-1.9,1.72-2.14c0.52-0.11,1.07-0.09,1.6-0.09
			c6.28,0,12.56-0.01,18.85,0c2.26,0,3.34,0.69,3.44,2.13c0.1,1.48-1.09,2.24-3.55,2.25c-2.51,0.01-5.01,0-7.76,0
			c-1.21,2.72-2.43,5.38-3.59,8.08c-8.79,20.42-17.58,40.84-26.34,61.28c-0.47,1.11-0.87,2.16-2.3,2.3
			c-1.65,0.17-2.39-0.2-3.13-1.87c-1.55-3.53-3.07-7.07-4.59-10.61c-7.54-17.54-15.08-35.09-22.62-52.63
			c-0.92-2.13-1.86-4.25-2.86-6.54c-2.44,0-4.75,0-7.07,0c-0.72,0-1.45,0.05-2.15-0.08c-1.07-0.19-1.73-1.05-1.75-2.08
			c-0.02-1.02,0.63-1.9,1.7-2.13c0.6-0.13,1.25-0.1,1.88-0.1c11.67-0.01,23.33-0.01,35,0c0.63,0,1.27-0.04,1.88,0.09
			c1.15,0.26,1.8,1.25,1.69,2.4c-0.11,1.08-0.72,1.76-1.94,1.84c-1.43,0.1-2.87,0.04-4.31,0.05c-0.96,0-1.93,0-3.36,0
			C145.68,217.83,152,232.62,158.56,247.97z M134.28,202.63c-2.13,0-4.01-0.05-5.88,0.01c-1.83,0.06-3.69-0.28-5.73,0.29
			c3.13,7.27,6.17,14.33,9.21,21.39c3.05,7.08,6.11,14.16,9.13,21.25c3,7.03,5.95,14.09,9.32,21.62c2.12-4.93,3.98-9.26,5.81-13.5
			C148.85,236.66,141.62,219.78,134.28,202.63z"/>
		<path class="st8" d="M470.85,236.27c0.91,0,1.77,0,2.8,0c2.43,2.94,4.95,6,7.47,9.06c0.05-0.02,0.1-0.05,0.15-0.07
			c0-2.98,0-5.96,0-8.99c1.07,0,2.08,0,3.07,0c0.19,0.65,0.27,13.12,0.09,14.8c-0.87,0.07-1.75,0.03-2.71,0.02
			c-2.47-2.99-4.95-6.01-7.44-9.03c-0.06,0.02-0.12,0.04-0.19,0.05c0,1.49,0,2.98,0,4.47c0,1.47,0,2.95,0,4.47
			c-1.13,0-2.17,0-3.24,0C470.85,246.12,470.85,241.23,470.85,236.27z"/>
		<path class="st8" d="M292.49,242.1c0,1.47,0,2.95,0,4.42c0,1.48,0,2.96,0,4.46c-0.55,0.23-1.08,0.1-1.59,0.12
			c-0.49,0.02-0.98,0-1.58,0c-0.09-2.5-0.03-4.96-0.04-7.41c-0.01-2.44,0-4.87,0-7.39c0.95,0,1.83,0,2.85,0
			c2.42,2.93,4.92,5.97,7.58,9.2c0-3.2,0-6.18,0-9.2c1.12,0,2.16,0,3.24,0c0,4.93,0,9.8,0,14.73c-0.91,0.18-1.83,0.02-2.76,0.09
			c-2.5-3.04-4.99-6.06-7.47-9.08C292.63,242.06,292.56,242.08,292.49,242.1z"/>
		<path class="st8" d="M310.09,251.11c-0.19-0.83-0.2-14.02-0.03-14.8c0.08-0.02,0.17-0.06,0.26-0.06c2.53,0,5.07-0.05,7.6,0.03
			c3.98,0.13,6.73,2.98,6.84,6.96c0.04,1.48-0.16,2.89-0.87,4.21c-1.11,2.05-2.85,3.21-5.15,3.5c-0.89,0.11-1.78,0.14-2.68,0.15
			c-1.7,0.02-3.4,0.01-5.1,0.01C310.66,251.11,310.36,251.11,310.09,251.11z M313.26,248.32c1.59-0.02,3.12,0.11,4.65-0.09
			c1.69-0.22,2.71-1.26,3.24-2.8c0.4-1.17,0.38-2.37,0.01-3.55c-0.5-1.63-1.85-2.73-3.53-2.81c-1.39-0.06-2.77-0.02-4.16-0.01
			c-0.08,0-0.16,0.08-0.22,0.11C313.26,242.21,313.26,245.22,313.26,248.32z"/>
		<path class="st8" d="M214.44,251.06c-1.07,0-2.1,0-3.23,0c0-2.2,0-4.35,0-6.55c-2.37,0-4.64,0-7.03,0
			c-0.08,2.16,0.01,4.34-0.05,6.55c-1.06,0-2.04,0-3.02,0c-0.03-0.02-0.06-0.04-0.08-0.06c-0.02-0.02-0.04-0.05-0.04-0.08
			c-0.02-4.63-0.03-9.27-0.04-13.9c0-0.24,0-0.48,0-0.76c1.07,0,2.08,0,3.19,0c0,1.76,0,3.53,0,5.28c0.76,0.2,6.04,0.23,7.07,0.05
			c0-1.73,0-3.48,0-5.33c1.12-0.02,2.15-0.03,3.24,0C214.44,241.22,214.44,246.12,214.44,251.06z"/>
		<path class="st8" d="M270.79,236.3c4.14,0,8.2,0,12.31,0c0,0.9,0,1.75,0,2.71c-1.02,0.05-2,0.02-2.98,0.02c-1.02,0-2.04,0-3.06,0
			c-0.98,0-1.97,0-3.02,0c-0.18,0.98-0.08,1.89-0.08,2.89c1.88,0,3.66,0,5.47,0c0,0.95,0,1.8,0,2.74c-1.79,0-3.54,0-5.25,0
			c-0.27,0.74-0.32,2.55-0.1,3.63c1.01,0.07,2.06,0.03,3.1,0.03c1.08,0.01,2.16,0,3.25,0c1.05,0,2.1,0,3.2,0c0,0.92,0,1.77,0,2.65
			c0,0-0.02,0.02-0.04,0.04c-0.02,0.02-0.05,0.05-0.07,0.05c-4.11,0.01-8.22,0.02-12.33,0.03c-0.12,0-0.23-0.03-0.39-0.05
			C270.79,246.15,270.79,241.27,270.79,236.3z"/>
		<path class="st8" d="M465.15,251.07c-4.26,0-8.46,0-12.63,0c-0.04-0.03-0.07-0.05-0.09-0.07c-0.02-0.02-0.04-0.05-0.04-0.08
			c-0.02-4.6-0.03-9.2-0.04-13.81c0-0.24,0.02-0.49,0.03-0.72c0.74-0.21,9.1-0.28,12.24-0.12c0,0.88,0,1.76,0,2.75
			c-1.55,0-3.05,0-4.56,0c-1.47,0-2.95,0-4.47,0c0,0.98,0,1.86,0,2.85c1.8,0.05,3.58-0.01,5.41,0.04c0,0.92,0,1.77,0,2.71
			c-0.87,0.1-1.76,0.03-2.64,0.04c-0.89,0.01-1.78,0-2.79,0c-0.01,0.63-0.03,1.2-0.03,1.77c-0.01,0.58,0,1.17,0,1.86
			c1.66,0.02,3.26,0.01,4.85,0.01c1.57,0,3.14,0,4.76,0C465.15,249.27,465.15,250.12,465.15,251.07z"/>
		<path class="st8" d="M432.08,236.26c1.03,0,2.04,0,3.14,0c0.02,0.25,0.05,0.51,0.05,0.78c0,2.78,0.07,5.56-0.02,8.34
			c-0.08,2.37,1.72,3.37,3.33,3.37c0.37,0,0.75,0.01,1.11-0.06c1.69-0.29,2.63-1.4,2.64-3.17c0.02-2.72,0.01-5.44,0.01-8.16
			c0-0.33,0-0.67,0-1.09c1.09,0,2.09,0,3.15,0c0.02,0.17,0.05,0.38,0.05,0.58c0,2.93-0.03,5.87,0.01,8.8
			c0.04,2.63-1.44,4.74-4.08,5.49c-2.27,0.64-4.52,0.6-6.65-0.54c-1.79-0.96-2.76-2.5-2.8-4.49c-0.07-3.18-0.02-6.36-0.01-9.55
			C432,236.52,432.03,236.46,432.08,236.26z"/>
		<path class="st8" d="M226.33,236.23c0.99,0,1.85,0,2.82,0c2.27,4.9,4.55,9.81,6.9,14.86c-0.66,0.03-1.23,0.02-1.8,0.02
			c-0.55,0-1.11,0-1.73,0c-0.47-1.05-0.94-2.08-1.41-3.12c-2.3,0-4.55,0-6.9,0c-0.44,0.99-0.9,2.03-1.37,3.08c-1.1,0-2.17,0-3.39,0
			C221.76,246.07,224.04,241.16,226.33,236.23z M229.96,245.35c-0.72-1.79-1.45-3.49-2.25-5.24c-0.77,1.18-2.16,4.55-2.18,5.24
			C226.98,245.35,228.42,245.35,229.96,245.35z"/>
		<path class="st8" d="M496.33,236.27c1.03,0,1.92,0,2.85,0c2.28,4.92,4.55,9.81,6.86,14.78c-1.22,0-2.34,0-3.53,0
			c-0.45-0.99-0.9-2-1.37-3.05c-2.29,0-4.57,0-6.92,0c-0.43,0.98-0.87,1.99-1.33,3.05c-1.11,0-2.21,0-3.41,0
			C491.77,246.08,494.06,241.16,496.33,236.27z M497.78,240.18c-0.07,0-0.13,0-0.2,0.01c-0.75,1.68-1.48,3.37-2.19,5.11
			c1.26,0.17,3.86,0.13,4.56-0.07C499.22,243.53,498.5,241.85,497.78,240.18z"/>
		<path class="st8" d="M376.35,251.08c-1.16,0-2.21,0-3.4,0c2.3-4.99,4.57-9.89,6.87-14.79c0.99,0,1.91,0,2.86,0
			c2.28,4.91,4.55,9.81,6.86,14.78c-1.23,0-2.33,0-3.53,0c-0.45-1-0.91-2.03-1.38-3.08c-2.32,0-4.6,0-6.92,0
			C377.26,249.02,376.81,250.03,376.35,251.08z M383.37,245.34c-0.24-1.12-1.84-4.69-2.32-5.17c-0.73,1.71-1.44,3.4-2.2,5.17
			C380.41,245.34,381.85,245.34,383.37,245.34z"/>
		<path class="st8" d="M335.2,236.26c0.96,0,1.87,0,2.84,0c2.29,4.93,4.56,9.83,6.87,14.8c-1.21,0-2.33,0-3.53,0
			c-0.22-0.48-0.45-0.98-0.68-1.48c-0.23-0.51-0.45-1.01-0.69-1.57c-2.28,0-4.56,0-6.94,0c-0.44,0.99-0.9,2.02-1.36,3.05
			c-1.12,0-2.18,0-3.39,0C330.65,246.07,332.92,241.18,335.2,236.26z M338.87,245.35c-0.79-1.84-1.52-3.56-2.34-5.45
			c-0.81,1.93-1.61,3.63-2.29,5.45C335.82,245.35,337.26,245.35,338.87,245.35z"/>
		<path class="st8" d="M254.83,238.42c-0.76,0.69-1.45,1.3-2.1,1.89c-0.83-0.43-1.65-0.91-2.52-1.28c-0.97-0.41-2.02-0.63-3.08-0.45
			c-2.21,0.37-3.59,1.68-4.13,3.85c-0.51,2.02,0.3,4.31,1.96,5.43c1.58,1.06,3.29,1.13,5.06,0.54c0.95-0.32,1.79-0.84,2.56-1.46
			c0.19-0.15,0.38-0.31,0.59-0.48c0.68,0.68,1.33,1.33,2.04,2.04c-0.21,0.19-0.4,0.37-0.61,0.54c-2.32,1.87-4.97,2.72-7.94,2.44
			c-4.02-0.38-6.75-3.33-7.12-6.97c-0.51-4.99,3.24-8.69,7.78-8.77c2.49-0.04,4.75,0.67,6.79,2.08
			C254.3,237.97,254.48,238.14,254.83,238.42z"/>
		<path class="st8" d="M100.04,313.55c-29.87,0-59.75,0-89.62,0c-0.81,0-1.62,0.06-2.42-0.04c-1.1-0.13-1.88-0.95-1.96-1.9
			c-0.07-0.91,0.62-1.93,1.62-2.22c0.5-0.15,1.06-0.14,1.59-0.15c1.26-0.02,2.51-0.01,3.77-0.01c58.94,0,117.88,0.01,176.82,0.01
			c0.81,0,1.63-0.06,2.42,0.05c1.32,0.19,2.2,1.27,2.08,2.38c-0.11,1.04-0.95,1.76-2.27,1.87c-0.71,0.06-1.43,0.02-2.15,0.02
			C159.97,313.55,130.01,313.55,100.04,313.55z"/>
		<path class="st8" d="M364.41,251.09c-0.97,0-1.83,0-2.8,0c-2.31-4.88-4.55-9.81-6.9-14.84c0.69,0,1.28,0,1.87,0
			c0.58,0,1.17,0,1.8,0c1.54,3.6,3.07,7.17,4.69,10.94c1.61-3.74,3.14-7.3,4.69-10.89c1.17,0,2.3,0,3.52,0
			C368.97,241.26,366.7,246.15,364.41,251.09z"/>
		<path class="st8" d="M397.69,248.31c2.99,0,5.85,0,8.77,0c0,0.94,0,1.8,0,2.66c-0.6,0.18-10.77,0.22-11.92,0.04
			c0-4.89,0-9.79,0-14.73c1.02,0,2.02,0,3.13,0c0.03,1.38,0.01,2.69,0.01,4.01c0,1.3,0,2.6,0,3.89
			C397.69,245.5,397.69,246.83,397.69,248.31z"/>
		<path class="st8" d="M260.57,236.29c1.03,0,2.01,0,2.98,0c0.19,0.65,0.27,12.84,0.1,14.71c-0.49,0.21-1.01,0.08-1.52,0.1
			c-0.49,0.02-0.98,0.01-1.46,0.01C260.47,250.39,260.39,238.52,260.57,236.29z"/>
		<path class="st8" d="M406.02,276.36c-0.47,0-0.83,0-1.18,0c-0.16-0.7-0.2-6.08-0.05-7.36c0.44,0,0.89,0,1.45,0
			c1.14,1.68,2.33,3.44,3.6,5.31c0.14-0.97,0.06-1.82,0.07-2.66c0.01-0.86,0-1.72,0-2.65c0.44,0,0.81,0,1.24,0c0,2.45,0,4.87,0,7.35
			c-0.49,0-0.94,0-1.45,0c-1.16-1.71-2.33-3.44-3.5-5.16c-0.21,0.88-0.19,1.72-0.19,2.56C406.02,274.58,406.02,275.42,406.02,276.36
			z"/>
		<path class="st8" d="M394.09,272.71c-0.1-1.85,1.23-3.9,3.83-3.86c2.29,0.03,3.73,1.67,3.73,3.8c0.01,2.43-1.79,3.86-3.76,3.87
			C395.83,276.54,394.05,274.96,394.09,272.71z M395.38,272.66c0.01,0.18,0,0.37,0.04,0.55c0.21,0.97,0.73,1.69,1.68,2.05
			c0.87,0.33,1.66,0.14,2.32-0.45c1.31-1.18,1.29-3.39-0.33-4.47c-0.81-0.54-1.91-0.48-2.67,0.15
			C395.74,271.05,395.36,271.76,395.38,272.66z"/>
		<path class="st8" d="M443.64,272.72c-0.06-2.11,1.5-3.83,3.74-3.89c2.15-0.05,3.89,1.72,3.84,3.9c-0.05,2.36-1.88,3.79-3.86,3.79
			C445.29,276.53,443.65,274.84,443.64,272.72z M444.89,272.71c0.06,1.4,1.05,2.57,2.35,2.71c1.16,0.12,2.3-0.83,2.59-2.17
			c0.01-0.06,0.03-0.12,0.04-0.18c0.23-1.29-0.65-2.68-1.88-3.02c-1.34-0.37-2.56,0.59-2.92,1.67
			C444.98,272.04,444.96,272.38,444.89,272.71z"/>
		<path class="st8" d="M322.39,268.96c1.09,0,2.14-0.06,3.18,0.01c1.96,0.15,3.33,1.82,3.27,3.9c-0.05,1.92-1.55,3.47-3.45,3.52
			c-0.98,0.03-1.96,0.01-2.93,0.01C322.29,275.67,322.24,270.37,322.39,268.96z M323.67,275.29c0.5,0,0.96-0.03,1.41,0.01
			c1.37,0.11,2.26-1.07,2.43-2.09c0.23-1.39-0.47-2.68-1.69-3.04c-0.71-0.21-1.44-0.15-2.16-0.01
			C323.67,271.87,323.67,273.53,323.67,275.29z"/>
		<path class="st8" d="M260.4,276.45c-0.03,0.28-0.05,0.59-0.09,0.97c-0.21,0.02-0.43,0.04-0.7,0.06c-0.03-0.37-0.06-0.67-0.09-1.05
			c-0.86-0.26-1.77-0.49-2.41-1.36c0.24-0.26,0.48-0.52,0.75-0.81c0.48,0.41,0.87,0.88,1.57,0.91c0.25-0.7,0.12-1.41,0.08-2.15
			c-0.34-0.14-0.66-0.26-0.96-0.4c-0.77-0.36-1.22-0.94-1.17-1.82c0.05-0.86,0.54-1.42,1.32-1.74c0.22-0.09,0.47-0.14,0.77-0.22
			c0.05-0.35,0.1-0.7,0.16-1.1c0.22,0,0.42,0,0.67,0c0.03,0.35,0.06,0.68,0.09,1.07c0.74,0.35,1.63,0.52,2.17,1.38
			c-0.29,0.19-0.6,0.39-0.94,0.61c-0.24-0.17-0.65-0.46-1.14-0.81c-0.22,0.76-0.11,1.39-0.11,2.04c1.09,0.44,2.25,0.79,2.19,2.27
			C262.53,275.27,262.12,275.68,260.4,276.45z M260.44,275.08c0.67-0.23,0.87-0.47,0.83-0.93c-0.03-0.45-0.25-0.63-0.92-0.68
			C260.4,274,260.26,274.54,260.44,275.08z M259.5,270.09c-0.66,0.24-0.84,0.43-0.83,0.85c0.02,0.49,0.35,0.65,0.83,0.82
			C259.5,271.16,259.5,270.63,259.5,270.09z"/>
		<path class="st8" d="M372.96,274.37c0,0.68,0,1.31,0,1.99c-0.46,0-0.82,0-1.17,0c-0.16-0.66-0.21-5.97-0.07-7.28
			c0.6-0.15,3.06-0.19,3.56-0.06c1.98,0.55,2.64,3.07,1.19,4.53c-0.19,0.19-0.41,0.36-0.67,0.58c0.48,0.72,0.95,1.43,1.49,2.23
			c-0.54,0-0.95,0-1.43,0c-0.45-0.64-0.93-1.32-1.4-1.98C373.96,274.37,373.51,274.37,372.96,274.37z M372.98,273.21
			c0.46,0,0.83,0,1.19,0c0.15,0,0.31,0.01,0.46-0.01c0.75-0.09,1.26-0.65,1.31-1.44c0.05-0.79-0.37-1.53-1.06-1.64
			c-0.62-0.1-1.27-0.17-1.91,0.06C372.98,271.17,372.98,272.12,372.98,273.21z"/>
		<path class="st8" d="M333.33,275.31c1.35,0,2.6,0,3.91,0c0,0.38,0,0.67,0,0.97c-0.68,0.17-4.17,0.2-5.19,0.04
			c0-2.41,0-4.84,0-7.31c1.68,0,3.33,0,5.02,0c0,0.34,0,0.64,0,1.04c-1.23,0-2.45,0-3.71,0c0,0.67,0,1.24,0,1.91
			c1.02,0,1.99,0,3.01,0c0,0.39,0,0.69,0,1.09c-0.97,0.02-1.94,0.04-2.94,0.07C333.2,273.82,333.31,274.48,333.33,275.31z"/>
		<path class="st8" d="M427.1,268.97c0.42,0,0.79,0,1.22,0c0.03,0.25,0.07,0.49,0.07,0.72c0.01,1.14,0,2.29,0,3.43
			c0,0.28,0,0.56,0.03,0.83c0.1,0.84,0.71,1.4,1.54,1.46c0.88,0.06,1.59-0.44,1.77-1.29c0.06-0.3,0.06-0.61,0.06-0.92
			c0.01-1.14,0-2.29,0-3.43c0-0.24,0.02-0.48,0.03-0.77c0.41,0,0.76,0,1.18,0c0.02,0.19,0.07,0.4,0.07,0.6c0.01,1.3,0.02,2.6,0,3.89
			c-0.03,2.5-2.45,3.89-4.66,2.67c-0.85-0.47-1.28-1.24-1.32-2.2c-0.03-1.02-0.02-2.04-0.02-3.06
			C427.1,270.29,427.1,269.68,427.1,268.97z"/>
		<path class="st8" d="M283.22,268.98c1.69,0,3.28,0,4.93,0c0,0.36,0,0.68,0,1.06c-1.22,0-2.38,0-3.61,0c0,0.63,0,1.2,0,1.88
			c0.96,0,1.92,0,2.96,0c0,0.42,0,0.74,0,1.17c-0.99,0-1.96,0-2.98,0c0,0.78,0,1.44,0,2.17c1.27,0,2.49,0,3.79,0
			c0,0.39,0,0.7,0,1.08c-1.68,0-3.36,0-5.09,0C283.22,273.9,283.22,271.48,283.22,268.98z"/>
		<path class="st8" d="M304.9,268.99c0.46,0,0.82,0,1.23,0c0.02,0.28,0.04,0.52,0.04,0.76c0,1.14,0,2.28,0.01,3.43
			c0,0.3,0.03,0.62,0.11,0.91c0.23,0.91,0.77,1.36,1.64,1.33c0.76-0.02,1.44-0.32,1.63-1.33c0.06-0.33,0.1-0.67,0.1-1.01
			c0.01-1.11,0-2.22,0.01-3.33c0-0.24,0.02-0.48,0.04-0.75c0.42,0,0.77,0,1.19,0c0.03,0.21,0.07,0.42,0.07,0.62
			c0.01,1.23,0.02,2.47-0.01,3.7c-0.01,0.43-0.06,0.87-0.18,1.28c-0.27,0.97-0.89,1.61-1.9,1.8c-0.39,0.07-0.79,0.14-1.19,0.13
			c-1.61-0.06-2.7-1.04-2.78-2.64C304.84,272.28,304.9,270.68,304.9,268.99z"/>
		<path class="st8" d="M296.39,268.96c1.11,0,2.16-0.06,3.2,0.01c1.33,0.09,2.33,1.34,2.33,2.77c0,1.45-1.05,2.64-2.46,2.75
			c-0.57,0.05-1.15,0.03-1.8,0.05c0,0.62,0,1.16,0,1.78c-0.45,0-0.82,0-1.26,0C296.39,273.92,296.39,271.5,296.39,268.96z
			 M297.67,273.4c0.51,0,0.91-0.03,1.31,0.01c1.18,0.11,1.82-1.14,1.59-2.09c-0.16-0.68-0.62-1.19-1.22-1.24
			c-0.54-0.05-1.09-0.01-1.68-0.01C297.67,271.21,297.67,272.25,297.67,273.4z"/>
		<path class="st8" d="M315.46,270.03c0,0.71,0,1.26,0,1.9c0.97,0,1.92,0,2.93,0c0,0.41,0,0.73,0,1.15c-0.97,0-1.92,0-2.91,0
			c0,0.76,0,1.43,0,2.2c1.27,0,2.52,0,3.83,0c0.02,0.4,0.03,0.69,0.04,0.97c-0.69,0.19-3.89,0.24-5.09,0.09
			c-0.16-0.65-0.2-6.19-0.04-7.33c1.61,0,3.23,0,4.91,0c0.01,0.32,0.03,0.62,0.05,1.02C317.94,270.03,316.75,270.03,315.46,270.03z"
			/>
		<path class="st8" d="M279.93,270.14c-0.3,0.3-0.56,0.55-0.85,0.85c-0.2-0.18-0.39-0.37-0.61-0.54c-0.55-0.43-1.17-0.55-1.84-0.38
			c-0.37,0.1-0.66,0.33-0.71,0.76c-0.05,0.43,0.15,0.72,0.53,0.88c0.37,0.16,0.75,0.27,1.13,0.4c0.35,0.12,0.71,0.22,1.05,0.37
			c0.8,0.36,1.31,0.93,1.27,1.86c-0.04,0.94-0.56,1.55-1.4,1.9c-1.48,0.62-3.08,0.21-4.21-1.09c0.26-0.24,0.53-0.49,0.73-0.68
			c0.57,0.3,1.1,0.67,1.7,0.85c0.37,0.11,0.85-0.01,1.25-0.12c0.38-0.11,0.57-0.44,0.59-0.86c0.02-0.43-0.19-0.73-0.55-0.88
			c-0.39-0.17-0.82-0.28-1.23-0.42c-0.32-0.11-0.65-0.2-0.96-0.34c-0.96-0.44-1.33-1.09-1.2-2.06c0.1-0.8,0.76-1.49,1.63-1.69
			C277.69,268.63,278.87,269.08,279.93,270.14z"/>
		<path class="st8" d="M391.52,270.11c-0.3,0.28-0.57,0.53-0.83,0.78c-1.38-1.15-2.73-1.22-3.71-0.2c-1.06,1.1-1.08,2.87-0.04,3.95
			c1.02,1.06,2.29,1.03,3.74-0.13c0.25,0.24,0.51,0.49,0.77,0.74c-1.21,1.55-3.66,1.72-5.22,0.4c-1.67-1.41-1.84-3.9-0.4-5.55
			C387.36,268.34,390.26,268.56,391.52,270.11z"/>
		<path class="st8" d="M344.35,268.97c0.56,0,0.95,0,1.4,0c0.59,1.59,1.18,3.17,1.84,4.96c0.78-1.73,1.24-3.37,1.9-4.95
			c0.46,0,0.88,0,1.38,0c-0.96,2.48-1.89,4.89-2.83,7.36c-0.24,0.02-0.47,0.04-0.8,0.08C346.28,273.96,345.34,271.52,344.35,268.97z
			"/>
		<path class="st8" d="M362.75,269c0.51,0,0.9,0,1.4,0c-0.96,2.5-1.89,4.91-2.84,7.35c-0.27,0-0.5,0-0.82,0
			c-0.93-2.4-1.86-4.8-2.82-7.3c0.29-0.05,0.49-0.09,0.68-0.1c0.18-0.02,0.37,0,0.63,0c0.71,1.56,1.16,3.23,1.88,4.93
			c0.51-0.81,0.69-1.65,0.99-2.43C362.16,270.64,362.44,269.83,362.75,269z"/>
		<path class="st8" d="M436.07,273.98c0.42,0,0.77,0,1.17,0c0.04,0.23,0.07,0.44,0.13,0.64c0.17,0.53,0.65,0.85,1.2,0.8
			c0.59-0.05,0.97-0.39,1.01-1c0.04-0.64,0.03-1.29,0.03-1.94c0-1.14,0-2.27,0-3.47c0.44,0,0.82,0,1.25,0
			c0.02,0.17,0.05,0.32,0.05,0.47c0,1.54-0.04,3.08,0.01,4.62c0.04,1.51-1.08,2.69-2.97,2.41
			C436.68,276.31,436.05,275.48,436.07,273.98z"/>
		<path class="st8" d="M420.64,268.99c0,1.11,0,2.12,0,3.14c0,1.01,0,2.03,0,3.14c1.23,0,2.39,0,3.61,0c0,0.42,0,0.74,0,1.09
			c-1.63,0-3.22,0-4.86,0c0-2.47,0-4.9,0-7.37c0.19-0.02,0.34-0.04,0.48-0.04C420.08,268.95,420.3,268.97,420.64,268.99z"/>
		<path class="st8" d="M353.56,268.99c0.43,0,0.79,0,1.19,0c0,2.45,0,4.85,0,7.28c-0.36,0.25-0.75,0.08-1.19,0.14
			C353.56,273.91,353.56,271.49,353.56,268.99z"/>
		<path class="st8" d="M368.04,276.36c-0.4,0-0.76,0-1.17,0c0-2.47,0-4.89,0-7.37c0.21-0.02,0.39-0.04,0.57-0.04
			c0.18,0,0.37,0.02,0.54,0.03C368.14,269.63,368.19,274.97,368.04,276.36z"/>
		<path class="st8" d="M265.95,271.83c0.38,0,0.71,0,1.03,0c0.21,0.61,0.26,3.37,0.08,4.52c-0.34,0-0.7,0-1.04,0
			C265.84,275.68,265.8,273.07,265.95,271.83z"/>
		<path class="st8" d="M265.92,270.56c0-0.57,0-1.05,0-1.57c0.41,0,0.76,0,1.18,0c0,0.52,0,1.02,0,1.57
			C266.69,270.56,266.34,270.56,265.92,270.56z"/>
	</g>
</g>
<g id="guias">
</g>
</svg>
