<?xml version="1.0" encoding="utf-8"?>
<!-- Generator: Adobe Illustrator 24.0.0, SVG Export Plug-In . SVG Version: 6.00 Build 0)  -->
<svg version="1.1" xmlns="http://www.w3.org/2000/svg" xmlns:xlink="http://www.w3.org/1999/xlink" x="0px" y="0px"
	 viewBox="0 0 512 512" style="enable-background:new 0 0 512 512;" xml:space="preserve">
<style type="text/css">
	.st0{fill:#0A4436;}
	.st1{clip-path:url(#SVGID_4_);}
	.st2{clip-path:url(#SVGID_8_);}
	.st3{fill:#FFFFFF;}
	.st4{fill:#30D686;}
	.st5{fill:#4D5F61;}
	.st6{fill:#ED9A56;}
	.st7{fill:#2C84C6;}
	.st8{fill:#EFD354;}
	.st9{fill:#024433;}
	.st10{fill:#F92C0B;}
	.st11{clip-path:url(#SVGID_10_);fill:#0A4436;}
	.st12{fill:#3DD367;}
	.st13{fill:#FF6D00;}
	.st14{fill:#0074FF;}
	.st15{clip-path:url(#SVGID_12_);}
	.st16{fill:#55CD6C;}
	.st17{fill:#2BCC65;}
	.st18{fill:url(#SVGID_15_);}
	.st19{fill:url(#SVGID_18_);}
</style>
<g id="Capa_1">
	<g>
		<g>
			<path class="st0" d="M5.33,21.59c0.64-1.26,1.27-2.53,1.92-3.79c3.49-6.74,8.9-10.62,16.59-11.04c1.62-0.09,3.25-0.05,4.88-0.05
				c121.1,0,242.2,0,363.3,0c1.46,0,2.93-0.03,4.39,0.02c10.64,0.37,18.66,8.35,19.08,18.99c0.06,1.46,0.03,2.93,0.03,4.39
				c0,121.1,0,242.2-0.01,363.3c0,2.43,0.1,4.93-0.35,7.29c-1.82,9.59-9.58,15.91-19.87,16.1c-8.95,0.16-17.9,0.04-26.86,0.04
				c-7.98,0-15.95,0.04-23.93-0.03c-1.93-0.02-3.94-0.15-5.78-0.68c-4.44-1.3-6.93-5.42-6.48-10.21c0.42-4.42,3.67-7.86,8.11-8.43
				c1.61-0.2,3.25-0.17,4.87-0.17c15.14-0.01,30.28-0.01,45.41-0.01c1.6,0,3.19,0,5.04,0c0-123.77,0-247.07,0-370.35
				c-3.65-0.89-364.76-1.1-370.55-0.19c0,123.27,0,246.58,0,370.53c1.96,0,3.86,0,5.76,0c72.43,0,144.86,0,217.3,0
				c1.95,0,3.92-0.06,5.85,0.14c4.89,0.5,8.37,4.21,8.63,9.03c0.25,4.61-2.59,8.64-7.15,9.79c-1.71,0.43-3.54,0.55-5.31,0.55
				c-74.39,0.03-148.77,0.03-223.16,0.01c-11.01,0-16.89-4.16-21.08-14.64c-0.11-0.27-0.43-0.46-0.65-0.68
				C5.33,274.87,5.33,148.23,5.33,21.59z"/>
			<path class="st0" d="M5.33,468.9c2.32-3.15,5.33-5.45,8.63-7.54c10.04-6.34,19.96-12.85,29.95-19.27
				c1.36-0.87,2.75-1.81,4.26-2.32c4.4-1.49,9.14,0.35,11.45,4.22c2.44,4.1,1.7,9.1-2.12,12.34c-2.19,1.86-4.69,3.36-7.23,5.15
				c3.88,1.01,321.05,1.16,326.39,0.12c-2.37-1.56-4.37-2.86-6.36-4.19c-2.39-1.6-4.15-3.66-4.61-6.59
				c-0.6-3.84,0.45-7.12,3.59-9.53c3.13-2.4,6.6-2.54,10.13-1.03c1.33,0.57,2.55,1.44,3.77,2.23c10.52,6.78,21.04,13.57,31.56,20.37
				c0.95,0.62,1.95,1.2,2.8,1.94c4.73,4.09,4.75,10.85,0.06,14.95c-0.73,0.64-1.56,1.17-2.38,1.69
				c-11.06,7.15-22.1,14.33-33.23,21.38c-1.73,1.1-3.78,2-5.78,2.3c-4.41,0.65-8.12-1.63-9.87-5.55c-1.81-4.04-0.79-8.49,2.74-11.43
				c1.24-1.04,2.67-1.84,4.01-2.77c1.29-0.9,2.57-1.81,4.66-3.29c-109.93,0-218.84,0-328.27,0c0.94,0.9,1.59,1.68,2.39,2.27
				c1.96,1.44,4.17,2.6,5.96,4.21c3.65,3.29,4.16,8.37,1.53,12.42c-2.53,3.89-7.67,5.41-12.08,3.49c-1.18-0.51-2.27-1.26-3.36-1.96
				c-10.66-6.87-21.37-13.67-31.94-20.69c-2.48-1.64-4.45-4.04-6.66-6.09C5.33,473.46,5.33,471.18,5.33,468.9z"/>
			<path class="st0" d="M100.78,231.91c-2.06,1.52-3.33,2.43-4.57,3.39c-9.45,7.25-20.88,6.27-28.84-2.65
				c-4.55-5.09-8.92-10.35-13.26-15.63c-8.26-10.05-7.4-21.78,2.45-30.27c13.07-11.25,26.33-22.27,39.51-33.39
				c32.95-27.8,65.91-55.58,98.82-83.42c4.47-3.78,9.17-6.61,15.27-6.63c5.5-0.02,10.14,1.88,14.26,5.37
				c8.94,7.57,17.91,15.1,26.86,22.66c36.68,30.94,73.36,61.89,110.04,92.84c1.62,1.36,3.26,2.71,4.75,4.2
				c7.2,7.2,8.44,18.14,2.36,26.28c-5.05,6.76-10.54,13.26-16.35,19.38c-7.15,7.53-18.23,8.04-26.68,1.85
				c-1.52-1.12-3.02-2.27-5.34-4.02c0,2.64,0,4.36,0,6.08c0,32.71,0.01,65.41-0.02,98.12c0,2.6,0.16,5.29-0.42,7.78
				c-1.9,8.12-6.96,13.48-15.08,15.6c-2.48,0.65-5.15,0.8-7.73,0.8c-57.6,0.04-115.2,0.02-172.8,0.05c-6.22,0-11.97-1.22-16.65-5.62
				c-3.96-3.71-6.3-8.22-6.51-13.72c-0.07-1.79-0.08-3.58-0.08-5.37c0-32.54,0-65.08,0-97.63
				C100.78,236.22,100.78,234.5,100.78,231.91z M210.58,139.14c-1.37,1.02-2.31,1.65-3.17,2.37c-27.98,23.6-55.93,47.23-83.95,70.79
				c-2.15,1.81-3.18,3.65-3.18,6.56c0.09,39.05,0.06,78.11,0.08,117.16c0,1.4,0.2,2.8,0.33,4.35c18.38,0,36.36,0,54.83,0
				c0-2.03,0-3.79,0-5.55c0-11.06-0.14-22.13,0.05-33.19c0.2-11.46,8.08-19.86,18.99-20.11c10.57-0.25,21.15-0.19,31.73-0.01
				c8.21,0.14,15.3,5.33,17.75,12.94c0.88,2.73,1.21,5.74,1.25,8.62c0.14,10.74,0.06,21.48,0.06,32.22c0,1.59,0,3.19,0,4.68
				c5.23,1.06,51.31,0.9,54.96-0.16c0.07-1.22,0.19-2.5,0.2-3.78c0.01-39.05-0.02-78.11,0.07-117.16c0.01-2.89-0.96-4.74-3.15-6.58
				c-24.3-20.4-48.51-40.89-72.75-61.35C220.08,147.08,215.47,143.24,210.58,139.14z M82.84,220.72c1.57-1.18,2.64-1.91,3.63-2.74
				c29.97-25.28,59.93-50.57,89.89-75.86c8.83-7.45,17.63-14.93,26.48-22.35c5.5-4.61,9.64-4.56,15.24,0.01
				c0.25,0.21,0.49,0.42,0.74,0.63c38.04,32.11,76.08,64.22,114.13,96.33c1.57,1.32,3.21,2.57,5.04,4.03
				c5.07-6.26,10.31-11.72,14.88-18.09c-47.66-40.21-94.94-80.18-142.46-120.15c-47.77,40.3-95.07,80.21-142.63,120.34
				C72.99,209.03,77.79,214.73,82.84,220.72z M225.46,340.41c0-13.32,0-26.11,0-39.1c-10.14,0-19.97,0-29.75,0
				c-1,5.4-0.82,35.52,0.29,39.35c8.32,0,16.77,0.01,25.21-0.01C222.48,340.65,223.76,340.51,225.46,340.41z"/>
			<path class="st0" d="M462.23,50.3c-2.28,3.3-3.85,5.94-5.78,8.28c-2.58,3.13-5.95,4.38-10.02,3.26c-4.05-1.11-6.28-3.9-7.13-7.85
				c-0.63-2.91,0.56-5.43,2.09-7.8c4.93-7.66,9.88-15.31,14.81-22.96c2.47-3.83,5.06-7.58,7.36-11.51c3.9-6.66,13.28-6.64,17.38-0.1
				c7.35,11.71,14.92,23.28,22.46,34.86c4.87,7.48-0.32,14.69-6.14,15.58c-4.14,0.63-7.33-0.9-9.74-4.17
				c-1.6-2.18-3.03-4.48-5.18-7.69c0,109.87,0,218.48,0,327.66c0.89-0.93,1.64-1.57,2.2-2.34c1.34-1.84,2.42-3.89,3.91-5.58
				c3.28-3.7,8.35-4.3,12.39-1.68c4.01,2.6,5.52,7.49,3.66,11.98c-0.31,0.75-0.68,1.48-1.11,2.16
				c-7.48,11.62-14.99,23.23-22.48,34.85c-1.56,2.42-3.57,4.27-6.48,4.77c-4.19,0.73-7.82-0.33-10.23-4.03
				c-7.81-11.99-15.64-23.98-23.27-36.08c-3.18-5.05-1.82-10.74,2.8-13.66c4.71-2.98,10-1.76,13.62,3.22
				c1.5,2.07,2.86,4.25,4.88,7.27C462.23,268.91,462.23,160.17,462.23,50.3z"/>
			<path class="st0" d="M297.51,397.37c5.38,0.06,9.55,4.2,9.6,9.51c0.05,5.41-4.5,9.96-9.87,9.87c-5.21-0.08-9.56-4.46-9.62-9.65
				C287.57,401.59,291.92,397.31,297.51,397.37z"/>
			<path class="st0" d="M210.31,246.25c-17.33-0.04-31.22-14.03-31.18-31.41c0.04-17.34,14.01-31.22,31.4-31.18
				c17.36,0.04,31.23,14,31.19,31.4C241.68,232.39,227.69,246.29,210.31,246.25z M222.15,214.96c0-6.47-5.24-11.72-11.72-11.72
				c-6.48,0-11.72,5.23-11.73,11.71c0,6.46,5.26,11.74,11.71,11.74C216.87,226.69,222.15,221.42,222.15,214.96z"/>
		</g>
	</g>
</g>
<g id="guias">
</g>
</svg>
