<?xml version="1.0" encoding="utf-8"?>
<!-- Generator: Adobe Illustrator 24.0.0, SVG Export Plug-In . SVG Version: 6.00 Build 0)  -->
<svg version="1.1" xmlns="http://www.w3.org/2000/svg" xmlns:xlink="http://www.w3.org/1999/xlink" x="0px" y="0px"
	 viewBox="0 0 512 512" style="enable-background:new 0 0 512 512;" xml:space="preserve">
<style type="text/css">
	.st0{fill:#0A4436;}
	.st1{clip-path:url(#SVGID_4_);}
	.st2{clip-path:url(#SVGID_8_);}
	.st3{fill:#FFFFFF;}
	.st4{fill:#30D686;}
	.st5{fill:#4D5F61;}
	.st6{fill:#ED9A56;}
	.st7{fill:#2C84C6;}
	.st8{fill:#EFD354;}
	.st9{fill:#024433;}
	.st10{fill:#F92C0B;}
	.st11{clip-path:url(#SVGID_10_);fill:#0A4436;}
	.st12{fill:#3DD367;}
	.st13{fill:#FF6D00;}
	.st14{fill:#0074FF;}
	.st15{clip-path:url(#SVGID_12_);}
	.st16{fill:#55CD6C;}
	.st17{fill:#2BCC65;}
	.st18{fill:url(#SVGID_15_);}
	.st19{fill:url(#SVGID_18_);}
</style>
<g id="Capa_1">
	<g>
		<g>
			<path class="st0" d="M505.77,490.92c0,1.11,0.52,10.99-6.93,10.99c-5.28,0-7.71-3.28-7.71-10.32c-0.01-29.94,0-59.89,0-89.83
				c0-1.77,0-3.53,0-5.21c-3.79,0-36.84-0.36-44.61-0.36c-0.05,1.76-0.15,3.64-0.15,5.51c-0.01,29.78-0.01,59.56-0.01,89.34
				c0,1.63,0.08,3.27-0.12,4.88c-0.42,3.45-3.05,5.97-6.41,6.36c-3.21,0.37-6.52-1.67-7.49-5.01c-0.53-1.83-0.6-3.84-0.6-5.77
				c-0.04-26.85-0.02-53.7-0.02-80.56c0-47.85,0-95.69,0-143.54c0-1.78,0-3.55,0-5.67c-137.05,0-273.83,0-411.27,0
				c0,1.81,0,3.69,0,5.58c0,74.21,0,148.42,0,222.63c0,1.46,0.05,2.93-0.02,4.39c-0.22,4.82-3.27,8.07-7.44,7.98
				c-4.02-0.09-6.91-3.2-7.17-7.75c-0.06-0.97-0.02-1.95-0.02-2.93c0-99.6,0-199.19,0-298.79c0-1.3-0.08-2.62,0.07-3.9
				c0.44-3.72,2.97-6.24,6.66-6.65c1.29-0.14,2.6-0.07,3.9-0.07c12.69,0,25.39,0,38.08,0c1.58,0,3.17,0,5.26,0c0-2.25,0-3.99,0-5.74
				c0-16.76-0.05-33.52,0.04-50.29c0.02-2.9,0.24-5.9,1-8.68c2.23-8.14,9.85-13.97,18.33-14.41c1.14-0.06,2.28-0.06,3.42-0.06
				c42.64,0,85.28-0.03,127.91,0.04c3.05,0.01,6.23,0.25,9.12,1.14c7.96,2.48,13.56,9.97,13.71,18.32
				c0.19,10.74,0.13,21.48,0.04,32.22c-0.04,4.6-2.96,7.7-6.98,7.86c-4.17,0.16-7.5-3.05-7.57-7.82
				c-0.14-9.44-0.04-18.88-0.06-28.32c0-1.3,0.08-2.62-0.12-3.9c-0.4-2.58-2.25-4.41-4.84-4.77c-1.44-0.2-2.92-0.13-4.39-0.13
				c-41.82-0.01-83.65-0.01-125.47,0c-8.12,0-9.49,1.41-9.5,9.75c-0.01,9.11,0,18.23,0,27.34c0,7.32,0,14.65,0,21.97
				c0,1.6,0,3.2,0,5.13c83.46,0,166.53,0,249.95,0c0-5.57,0-11.17,0-17.33c-1.73,0-3.3,0-4.88,0c-11.39,0-22.78,0.03-34.18-0.03
				c-1.93-0.01-3.93-0.11-5.78-0.61c-9.06-2.41-12.28-13.09-6.14-20.2c0.64-0.74,1.37-1.4,2.09-2.05
				c15.71-14.17,31.44-28.31,47.11-42.53c3.21-2.91,6.72-4.4,11.08-3.93c3.28,0.35,5.71,2.14,8.04,4.24
				c12.44,11.23,24.89,22.45,37.33,33.68c3.38,3.05,6.76,6.11,10.14,9.17c4.32,3.91,5.65,8.71,3.63,14.14
				c-2.05,5.53-6.48,8.02-12.18,8.07c-11.72,0.11-23.43,0.04-35.15,0.04c-1.77,0-3.54,0-5.88,0c-0.09,3.13-0.19,5.98-0.23,8.83
				c-0.04,2.74-0.01,5.49-0.01,8.84c2.14,0,3.88,0,5.62,0c26.04,0,52.08-0.06,78.11,0.08c3.34,0.02,6.9,0.51,9.95,1.77
				c8.25,3.39,12.67,9.85,13.26,18.8c0.12,1.78,0.06,3.58,0.06,5.37c0,41.66,0,83.32,0,124.98c0,1.77,0,3.55,0,5.74
				c1.68,0.13,3.08,0.32,4.47,0.33c10.09,0.03,20.18,0,30.27,0.02c13.19,0.02,24.14,4.04,24.14,16.94
				C505.24,361.4,505.77,445.8,505.77,490.92z M59.37,246.58c0-7.75-0.34-45.41-0.34-49.4c-12.76,0-25.52,0-38.25,0
				c0,16.64,0,32.97,0,49.4C33.75,246.58,46.4,246.58,59.37,246.58z M112.65,197.44c-5.35,0-32.85,0.18-37.99,0.18
				c0,16.18,0,32.38,0,49.02c12.8,0.14,25.34,0.12,37.99,0.04C112.65,229.8,112.65,213.6,112.65,197.44z M286.52,246.75
				c12.81-0.08,25.35,0.13,37.92-0.13c0-16.9,0-33.11,0-49.78c-12.82,0.14-25.38-0.24-37.92,0.24
				C286.52,213.87,286.52,230.07,286.52,246.75z M431.67,246.49c0-14.51,0.09-28.61-0.05-42.71c-0.05-4.41-2.94-6.81-7.74-6.88
				c-7.14-0.1-14.28-0.03-21.42-0.03c-3.21,0-6.42,0-9.86,0c0,16.77,0,33.07,0,49.62C405.55,246.49,418.3,246.49,431.67,246.49z
				 M127.8,246.19c7.43,0,32.82-0.25,37.81-0.25c0-16.2,0-32.39,0-48.53c-6.69,0-33.76,0.25-37.81,0.25
				C127.8,213.86,127.8,230.05,127.8,246.19z M218.53,197.16c-12.84,0-25.26,0-37.73,0c0,16.61,0,32.92,0,49.28
				c12.73,0,25.14,0,37.73,0C218.53,229.95,218.53,213.76,218.53,197.16z M271.44,197.19c-12.95,0-25.36,0-37.76,0
				c0,16.63,0,32.95,0,49.23c12.75,0,25.18,0,37.76,0C271.44,229.91,271.44,213.71,271.44,197.19z M377.35,246.57
				c0-16.8,0-33.11,0-49.38c-12.78,0-25.22,0-37.62,0c0,8.01,0.42,45.03,0.42,49.38C352.4,246.57,364.71,246.57,377.35,246.57z
				 M375.48,149.68c-14.89-13.45-29.05-26.22-43.48-39.25c-12.46,11.22-24.64,22.17-36.79,33.15c-1.92,1.74-3.74,3.59-5.6,5.4
				c-0.08,0.08-0.05,0.31-0.02,0.46c0.03,0.12,0.13,0.22,0.15,0.24C317.98,149.68,346.16,149.68,375.48,149.68z M491.12,380.77
				c0-6.07,0.02-11.74-0.01-17.41c-0.04-6.98-2.38-9.38-9.31-9.4c-10.39-0.04-20.77-0.02-31.16,0c-1.26,0-2.52,0.17-4.02,0.28
				c0,8.9,0,17.56,0,26.53C461.42,380.77,475.95,380.77,491.12,380.77z"/>
			<path class="st0" d="M88.7,360.13c-2.49,0-4.4,0.09-6.31-0.02c-4.72-0.25-7.41-2.61-7.47-7.23c-0.16-11.55-0.16-23.11-0.01-34.66
				c0.06-4.69,2.64-7.01,7.36-7.33c1.13-0.08,2.28-0.04,3.42-0.04c30.76,0,61.52,0,92.27,0c9.27,0,11.18,1.9,11.19,11.11
				c0.01,9.28,0.01,18.55-0.01,27.83c0,1.46-0.01,2.95-0.3,4.36c-0.75,3.62-3.02,5.62-6.75,5.91c-2.08,0.16-4.19,0.03-6.77,0.03
				c-0.08,2.32-0.21,4.22-0.21,6.12c-0.01,28.48-0.01,56.96-0.01,85.44c0,9.91-1.71,11.61-11.66,11.61c-21.16,0-42.31,0-63.47,0
				c-1.46,0-2.94,0.09-4.39-0.1c-4.3-0.55-6.6-3.1-6.85-7.48c-0.08-1.3-0.03-2.6-0.03-3.9c0-28.48,0-56.96,0-85.44
				C88.7,364.55,88.7,362.77,88.7,360.13z M103.59,406.61c19.09,0,37.71,0,56.28,0c0-6.15-0.28-40.64-0.28-46.19
				c-18.57,0-37.16,0-56,0C103.59,375.89,103.59,391.08,103.59,406.61z M89.71,345.21c28.51,0,56.41,0,84.54,0
				c0-6.56,0-12.83,0-19.39c-28.27,0-56.28,0-84.54,0C89.71,332.4,89.71,338.66,89.71,345.21z M103.5,448.31
				c19.17,0,37.79,0,56.67,0c0-8.98,0-17.67,0-26.49c-19.04,0-37.79,0-56.67,0C103.5,430.74,103.5,439.33,103.5,448.31z"/>
			<path class="st0" d="M291.9,406.65c19.2,0,37.86,0,57.13,0c0.35-15.37,0.1-30.69,0.18-46.5c-2.4,0-4.15,0-5.9,0
				c-22.62,0-45.24,0-67.87,0c-1.46,0-2.93,0.05-4.39-0.03c-4.9-0.27-7.37-2.76-7.6-7.66c-0.08-1.79-0.02-3.58-0.02-5.37
				c0-9.28-0.06-18.55,0.02-27.83c0.05-5.83,2.49-8.2,8.33-8.4c1.14-0.04,2.28-0.01,3.42-0.01c30.11,0,60.22,0,90.33,0
				c0.49,0,0.98,0,1.46,0c8.63,0.03,10.74,2.08,10.75,10.55c0.01,9.11,0,18.23,0,27.34c0,0.81,0.01,1.63,0,2.44
				c-0.15,6.32-2.59,8.77-8.92,8.97c-1.43,0.05-2.87,0.13-4.96,0.23c0,2.11,0,4,0,5.9c0,28.48,0,56.96,0,85.44
				c0,9.57-1.94,11.53-11.38,11.53c-21.32,0-42.64,0.01-63.96-0.01c-1.62,0-3.28,0.07-4.87-0.2c-3.82-0.64-5.99-3.09-6.34-6.95
				c-0.1-1.13-0.04-2.28-0.04-3.42c0-20.83,0-41.66,0-62.5c0-1.3-0.09-2.62,0.09-3.9c0.49-3.64,3.37-6.28,6.89-6.47
				c3.59-0.19,6.92,2.53,7.54,6.3c0.21,1.27,0.13,2.6,0.13,3.9C291.91,395.38,291.9,400.74,291.9,406.65z M278.43,325.77
				c0,6.66,0,13.05,0,19.49c28.28,0,56.2,0,84.29,0c0-6.64,0-13.03,0-19.49C334.44,325.77,306.52,325.77,278.43,325.77z
				 M292.04,448.15c7.78,0,52.62-0.34,56.82-0.34c0-8.67,0-17.35,0-25.99c-19.12,0-37.9,0-56.82,0
				C292.04,430.73,292.04,439.31,292.04,448.15z"/>
			<path class="st0" d="M429.63,97.2c-14.96-0.89-28-8.1-36.44-22.92c-2.37-4.16-1.91-7.63,1.02-10.13
				c3.47-2.96,8.17-2.21,10.98,1.78c1.49,2.12,2.77,4.42,4.44,6.39c8.35,9.81,22.32,12.88,34.15,7.63
				c11.74-5.21,18.98-17.61,17.46-29.9c-1.67-13.55-11.04-23.78-23.9-26.11c-12.42-2.25-24.34,3.09-30.89,13.82
				c-0.34,0.55-0.63,1.14-0.97,1.69c-2.59,4.2-6.53,5.61-10.24,3.67c-3.89-2.03-5.11-6.45-2.34-10.92
				c2.54-4.11,5.29-8.34,8.82-11.54c13.32-12.07,28.92-15.37,45.7-8.98c16.54,6.3,26.22,18.8,28.25,36.53
				C478.68,74.48,457.93,97.31,429.63,97.2z"/>
			<path class="st0" d="M134.51,136.29c1.14,0,2.29-0.06,3.41,0.1c3.39,0.49,5.91,3.18,6.23,6.55c0.3,3.03-1.57,6.19-4.67,7.24
				c-1.64,0.56-3.49,0.7-5.25,0.71c-11.22,0.06-22.45,0.03-33.67,0.02c-1.14,0-2.29,0.05-3.41-0.14c-4.12-0.69-6.72-3.93-6.41-7.87
				c0.29-3.7,3.11-6.46,7.16-6.58C103.27,136.19,128.81,136.28,134.51,136.29z"/>
		</g>
	</g>
</g>
<g id="guias">
</g>
</svg>
