<?xml version="1.0" encoding="utf-8"?>
<!-- Generator: Adobe Illustrator 24.0.0, SVG Export Plug-In . SVG Version: 6.00 Build 0)  -->
<svg version="1.1" xmlns="http://www.w3.org/2000/svg" xmlns:xlink="http://www.w3.org/1999/xlink" x="0px" y="0px"
	 viewBox="0 0 512 512" style="enable-background:new 0 0 512 512;" xml:space="preserve">
<style type="text/css">
	.st0{fill:#0A4436;}
	.st1{clip-path:url(#SVGID_4_);}
	.st2{clip-path:url(#SVGID_8_);}
	.st3{fill:#FFFFFF;}
	.st4{fill:#30D686;}
	.st5{fill:#4D5F61;}
	.st6{fill:#ED9A56;}
	.st7{fill:#2C84C6;}
	.st8{fill:#EFD354;}
	.st9{fill:#024433;}
	.st10{fill:#F92C0B;}
	.st11{clip-path:url(#SVGID_10_);fill:#0A4436;}
	.st12{fill:#3DD367;}
	.st13{fill:#FF6D00;}
	.st14{fill:#0074FF;}
	.st15{clip-path:url(#SVGID_12_);}
	.st16{fill:#55CD6C;}
	.st17{fill:#2BCC65;}
	.st18{fill:url(#SVGID_15_);}
	.st19{fill:url(#SVGID_18_);}
</style>
<g id="Capa_1">
	<path class="st0" d="M494.33,5.5H18.67C11.95,5.5,6.5,10.95,6.5,17.67v54.79v62.26v59.77v59.77v239.07
		c0,6.72,5.45,12.17,12.17,12.17h234.1h58.52h58.52h60.96h63.56c6.72,0,12.17-5.45,12.17-12.17V17.67
		C506.5,10.95,501.05,5.5,494.33,5.5z M30.84,266.43H240.6v214.73H30.84V266.43z M264.94,481.16v-226.9
		c0-6.72-5.45-12.17-12.17-12.17H30.84v-35.43h268.28v274.5H264.94z M323.46,481.16V194.49c0-6.72-5.45-12.17-12.17-12.17H30.84
		v-35.43h326.8v334.27H323.46z M381.98,481.16V134.72c0-6.72-5.45-12.17-12.17-12.17H30.84V84.63H418.6v396.53H381.98z
		 M482.16,481.16h-39.21V72.46c0-6.72-5.45-12.17-12.17-12.17H30.84V29.84h451.32V481.16z"/>
</g>
<g id="guias">
</g>
</svg>
