<?xml version="1.0" encoding="utf-8"?>
<!-- Generator: Adobe Illustrator 24.0.0, SVG Export Plug-In . SVG Version: 6.00 Build 0)  -->
<svg version="1.1" xmlns="http://www.w3.org/2000/svg" xmlns:xlink="http://www.w3.org/1999/xlink" x="0px" y="0px"
	 viewBox="0 0 512 512" style="enable-background:new 0 0 512 512;" xml:space="preserve">
<style type="text/css">
	.st0{fill:#0A4436;}
	.st1{clip-path:url(#SVGID_4_);}
	.st2{clip-path:url(#SVGID_8_);}
	.st3{fill:#FFFFFF;}
	.st4{fill:#30D686;}
	.st5{fill:#4D5F61;}
	.st6{fill:#ED9A56;}
	.st7{fill:#2C84C6;}
	.st8{fill:#EFD354;}
	.st9{fill:#024433;}
	.st10{fill:#F92C0B;}
	.st11{clip-path:url(#SVGID_10_);fill:#0A4436;}
	.st12{fill:#3DD367;}
	.st13{fill:#FF6D00;}
	.st14{fill:#0074FF;}
	.st15{clip-path:url(#SVGID_12_);}
	.st16{fill:#55CD6C;}
	.st17{fill:#2BCC65;}
	.st18{fill:url(#SVGID_15_);}
	.st19{fill:url(#SVGID_18_);}
</style>
<g id="Capa_1">
	<g>
		<path class="st3" d="M6,505.97l34.48-125C18.07,342.18,6,299.08,6,254.25C6,118.04,118.07,5.97,255.14,5.97S506,118.04,506,254.25
			S392.21,505.97,255.14,505.97c-43.1,0-84.48-13.79-121.55-34.48L6,505.97z"/>
		<path class="st16" d="M140.48,426.66l7.76,4.31c31.9,19.83,68.97,31.9,107.76,31.9c112.93,0,206.9-93.97,206.9-208.62
			S368.93,49.08,255.14,49.08S49.1,140.46,49.1,254.25c0,39.66,11.21,78.45,31.9,111.21l5.17,7.76l-19.83,72.41L140.48,426.66z"/>
		<path class="st3" d="M188.76,138.73l-16.38-0.86c-5.17,0-10.34,1.72-13.79,5.17c-7.76,6.9-20.69,19.83-24.14,37.07
			c-6.03,25.86,3.45,56.9,25.86,87.93s65.52,81.03,141.38,102.59c24.14,6.9,43.1,2.59,58.62-6.9c12.07-7.76,19.83-19.83,22.41-32.76
			l2.59-12.07c0.86-3.45-0.86-7.76-4.31-9.48l-54.31-25c-3.45-1.72-7.76-0.86-10.34,2.59l-21.55,27.59
			c-1.72,1.72-4.31,2.59-6.9,1.72c-14.66-5.17-63.79-25.86-90.52-77.59c-0.86-2.59-0.86-5.17,0.86-6.9l20.69-23.28
			c1.72-2.59,2.59-6.03,1.72-8.62l-25-56.03C194.79,141.32,192.21,138.73,188.76,138.73"/>
	</g>
</g>
<g id="guias">
</g>
</svg>
